solid 
   facet normal 1.000000e+00 0.000000e+00 0.000000e+00
      outer loop
         vertex 5.216242e+00 -1.299195e+01 4.010000e+01
         vertex 5.216242e+00 -1.299195e+01 1.000000e+01
         vertex 5.216242e+00 -2.559952e+00 4.000000e+01
      endloop
   endfacet
   facet normal 1.000000e+00 0.000000e+00 -0.000000e+00
      outer loop
         vertex 5.216242e+00 -1.299195e+01 1.000000e+01
         vertex 5.216242e+00 -2.559952e+00 1.000000e+01
         vertex 5.216242e+00 -2.559952e+00 4.000000e+01
      endloop
   endfacet
   facet normal 1.000000e+00 0.000000e+00 -0.000000e+00
      outer loop
         vertex 5.216242e+00 -2.559952e+00 4.000000e+01
         vertex 5.216242e+00 1.299105e+01 4.000000e+01
         vertex 5.216242e+00 1.309105e+01 4.010000e+01
      endloop
   endfacet
   facet normal 1.000000e+00 0.000000e+00 0.000000e+00
      outer loop
         vertex 5.216242e+00 1.299105e+01 4.000000e+01
         vertex 5.216242e+00 1.299105e+01 2.956800e+01
         vertex 5.216242e+00 1.309105e+01 2.956800e+01
      endloop
   endfacet
   facet normal 1.000000e+00 0.000000e+00 0.000000e+00
      outer loop
         vertex 5.216242e+00 1.309105e+01 2.956800e+01
         vertex 5.216242e+00 1.309105e+01 4.010000e+01
         vertex 5.216242e+00 1.299105e+01 4.000000e+01
      endloop
   endfacet
   facet normal 1.000000e+00 -0.000000e+00 0.000000e+00
      outer loop
         vertex 5.216242e+00 1.309105e+01 4.010000e+01
         vertex 5.216242e+00 -1.299195e+01 4.010000e+01
         vertex 5.216242e+00 -2.559952e+00 4.000000e+01
      endloop
   endfacet
   facet normal -1.000000e+00 0.000000e+00 0.000000e+00
      outer loop
         vertex -5.216242e+00 -2.559952e+00 2.956800e+01
         vertex -5.216242e+00 -2.559952e+00 1.000000e+01
         vertex -5.216242e+00 -1.299195e+01 1.000000e+01
      endloop
   endfacet
   facet normal -1.000000e+00 0.000000e+00 0.000000e+00
      outer loop
         vertex -5.216242e+00 -1.299195e+01 1.000000e+01
         vertex -5.216242e+00 -1.299195e+01 4.010000e+01
         vertex -5.216242e+00 -2.559952e+00 2.956800e+01
      endloop
   endfacet
   facet normal -1.000000e+00 -0.000000e+00 0.000000e+00
      outer loop
         vertex -5.216242e+00 -1.299195e+01 4.010000e+01
         vertex -5.216242e+00 1.309105e+01 4.010000e+01
         vertex -5.216242e+00 -2.559952e+00 2.956800e+01
      endloop
   endfacet
   facet normal -1.000000e+00 0.000000e+00 0.000000e+00
      outer loop
         vertex -5.216242e+00 1.309105e+01 4.010000e+01
         vertex -5.216242e+00 1.309105e+01 2.956800e+01
         vertex -5.216242e+00 -2.559952e+00 2.956800e+01
      endloop
   endfacet
   facet normal 0.000000e+00 0.000000e+00 1.000000e+00
      outer loop
         vertex -5.216242e+00 1.309105e+01 4.010000e+01
         vertex -5.216242e+00 -1.299195e+01 4.010000e+01
         vertex 5.216242e+00 -1.299195e+01 4.010000e+01
      endloop
   endfacet
   facet normal 0.000000e+00 0.000000e+00 1.000000e+00
      outer loop
         vertex 5.216242e+00 -1.299195e+01 4.010000e+01
         vertex 5.216242e+00 1.309105e+01 4.010000e+01
         vertex -5.216242e+00 1.309105e+01 4.010000e+01
      endloop
   endfacet
   facet normal 0.000000e+00 0.000000e+00 -1.000000e+00
      outer loop
         vertex 5.215757e+00 1.299105e+01 2.956800e+01
         vertex 5.215757e+00 -2.559952e+00 2.956800e+01
         vertex -5.216242e+00 -2.559952e+00 2.956800e+01
      endloop
   endfacet
   facet normal 0.000000e+00 0.000000e+00 -1.000000e+00
      outer loop
         vertex -5.216242e+00 -2.559952e+00 2.956800e+01
         vertex -5.216242e+00 1.309105e+01 2.956800e+01
         vertex 5.215757e+00 1.299105e+01 2.956800e+01
      endloop
   endfacet
   facet normal -0.000000e+00 0.000000e+00 -1.000000e+00
      outer loop
         vertex -5.216242e+00 1.309105e+01 2.956800e+01
         vertex 5.216242e+00 1.309105e+01 2.956800e+01
         vertex 5.215757e+00 1.299105e+01 2.956800e+01
      endloop
   endfacet
   facet normal 0.000000e+00 0.000000e+00 -1.000000e+00
      outer loop
         vertex 5.216242e+00 1.309105e+01 2.956800e+01
         vertex 5.216242e+00 1.299105e+01 2.956800e+01
         vertex 5.215757e+00 1.299105e+01 2.956800e+01
      endloop
   endfacet
   facet normal 0.000000e+00 0.000000e+00 -1.000000e+00
      outer loop
         vertex -3.216243e+00 -2.559952e+00 3.800000e+01
         vertex -3.216243e+00 1.299105e+01 3.800000e+01
         vertex 3.216150e+00 1.299105e+01 3.800000e+01
      endloop
   endfacet
   facet normal 0.000000e+00 0.000000e+00 -1.000000e+00
      outer loop
         vertex 3.216150e+00 1.299105e+01 3.800000e+01
         vertex 3.216150e+00 -2.559952e+00 3.800000e+01
         vertex -3.216243e+00 -2.559952e+00 3.800000e+01
      endloop
   endfacet
   facet normal -1.000000e+00 0.000000e+00 4.648273e-05
      outer loop
         vertex 3.216150e+00 -2.559952e+00 3.800000e+01
         vertex 3.216150e+00 1.299105e+01 3.800000e+01
         vertex 3.215851e+00 1.299105e+01 3.156800e+01
      endloop
   endfacet
   facet normal -1.000000e+00 0.000000e+00 4.648273e-05
      outer loop
         vertex 3.215851e+00 1.299105e+01 3.156800e+01
         vertex 3.215851e+00 -2.559952e+00 3.156800e+01
         vertex 3.216150e+00 -2.559952e+00 3.800000e+01
      endloop
   endfacet
   facet normal 0.000000e+00 0.000000e+00 1.000000e+00
      outer loop
         vertex 3.215851e+00 -2.559952e+00 3.156800e+01
         vertex 3.215851e+00 1.299105e+01 3.156800e+01
         vertex -3.216243e+00 1.299105e+01 3.156800e+01
      endloop
   endfacet
   facet normal 0.000000e+00 0.000000e+00 1.000000e+00
      outer loop
         vertex -3.216243e+00 1.299105e+01 3.156800e+01
         vertex -3.216243e+00 -2.559952e+00 3.156800e+01
         vertex 3.215851e+00 -2.559952e+00 3.156800e+01
      endloop
   endfacet
   facet normal 1.000000e+00 0.000000e+00 -0.000000e+00
      outer loop
         vertex -3.216243e+00 -2.559952e+00 3.156800e+01
         vertex -3.216243e+00 1.299105e+01 3.156800e+01
         vertex -3.216243e+00 1.299105e+01 3.800000e+01
      endloop
   endfacet
   facet normal 1.000000e+00 -0.000000e+00 0.000000e+00
      outer loop
         vertex -3.216243e+00 1.299105e+01 3.800000e+01
         vertex -3.216243e+00 -2.559952e+00 3.800000e+01
         vertex -3.216243e+00 -2.559952e+00 3.156800e+01
      endloop
   endfacet
   facet normal 1.000000e+00 0.000000e+00 -4.648614e-05
      outer loop
         vertex 5.215757e+00 -2.559952e+00 2.956800e+01
         vertex 5.215757e+00 1.299105e+01 2.956800e+01
         vertex 5.216242e+00 -2.559952e+00 4.000000e+01
      endloop
   endfacet
   facet normal 1.000000e+00 0.000000e+00 -4.648614e-05
      outer loop
         vertex 5.215757e+00 1.299105e+01 2.956800e+01
         vertex 5.216242e+00 1.299105e+01 4.000000e+01
         vertex 5.216242e+00 -2.559952e+00 4.000000e+01
      endloop
   endfacet
   facet normal 0.000000e+00 -1.000000e+00 0.000000e+00
      outer loop
         vertex 5.215757e+00 1.299105e+01 2.956800e+01
         vertex 5.216242e+00 1.299105e+01 2.956800e+01
         vertex 5.216242e+00 1.299105e+01 4.000000e+01
      endloop
   endfacet
   facet normal -0.000000e+00 -1.000000e+00 0.000000e+00
      outer loop
         vertex 3.215851e+00 1.299105e+01 3.156800e+01
         vertex 3.216150e+00 1.299105e+01 3.800000e+01
         vertex -3.216243e+00 1.299105e+01 3.800000e+01
      endloop
   endfacet
   facet normal 0.000000e+00 -1.000000e+00 0.000000e+00
      outer loop
         vertex -3.216243e+00 1.299105e+01 3.800000e+01
         vertex -3.216243e+00 1.299105e+01 3.156800e+01
         vertex 3.215851e+00 1.299105e+01 3.156800e+01
      endloop
   endfacet
   facet normal 0.000000e+00 0.000000e+00 1.000000e+00
      outer loop
         vertex -5.216242e+00 -2.559952e+00 1.000000e+01
         vertex 5.216242e+00 -2.559952e+00 1.000000e+01
         vertex 1.583125e+00 1.391020e+01 1.000000e+01
      endloop
   endfacet
   facet normal 0.000000e+00 0.000000e+00 1.000000e+00
      outer loop
         vertex 5.216242e+00 -2.559952e+00 1.000000e+01
         vertex 5.216242e+00 -1.299195e+01 1.000000e+01
         vertex 8.161651e+00 -1.137486e+01 1.000000e+01
      endloop
   endfacet
   facet normal 0.000000e+00 0.000000e+00 1.000000e+00
      outer loop
         vertex 8.161651e+00 -1.137486e+01 1.000000e+01
         vertex 1.063691e+01 -9.102531e+00 1.000000e+01
         vertex 5.216242e+00 -2.559952e+00 1.000000e+01
      endloop
   endfacet
   facet normal 0.000000e+00 0.000000e+00 1.000000e+00
      outer loop
         vertex 1.063691e+01 -9.102531e+00 1.000000e+01
         vertex 1.249945e+01 -6.305858e+00 1.000000e+01
         vertex 5.216242e+00 -2.559952e+00 1.000000e+01
      endloop
   endfacet
   facet normal 0.000000e+00 0.000000e+00 1.000000e+00
      outer loop
         vertex 1.249945e+01 -6.305858e+00 1.000000e+01
         vertex 1.364196e+01 -3.145941e+00 1.000000e+01
         vertex 5.216242e+00 -2.559952e+00 1.000000e+01
      endloop
   endfacet
   facet normal 0.000000e+00 0.000000e+00 1.000000e+00
      outer loop
         vertex 1.364196e+01 -3.145941e+00 1.000000e+01
         vertex 1.399864e+01 1.951949e-01 1.000000e+01
         vertex 5.216242e+00 -2.559952e+00 1.000000e+01
      endloop
   endfacet
   facet normal 0.000000e+00 0.000000e+00 1.000000e+00
      outer loop
         vertex 1.399864e+01 1.951949e-01 1.000000e+01
         vertex 1.354894e+01 3.525087e+00 1.000000e+01
         vertex 5.216242e+00 -2.559952e+00 1.000000e+01
      endloop
   endfacet
   facet normal 0.000000e+00 0.000000e+00 1.000000e+00
      outer loop
         vertex 1.354894e+01 3.525087e+00 1.000000e+01
         vertex 1.231876e+01 6.651919e+00 1.000000e+01
         vertex 5.216242e+00 -2.559952e+00 1.000000e+01
      endloop
   endfacet
   facet normal 0.000000e+00 0.000000e+00 1.000000e+00
      outer loop
         vertex 1.231876e+01 6.651919e+00 1.000000e+01
         vertex 1.037898e+01 9.395574e+00 1.000000e+01
         vertex 5.216242e+00 -2.559952e+00 1.000000e+01
      endloop
   endfacet
   facet normal 0.000000e+00 0.000000e+00 1.000000e+00
      outer loop
         vertex 1.037898e+01 9.395574e+00 1.000000e+01
         vertex 7.841320e+00 1.159800e+01 1.000000e+01
         vertex 5.216242e+00 -2.559952e+00 1.000000e+01
      endloop
   endfacet
   facet normal 0.000000e+00 0.000000e+00 1.000000e+00
      outer loop
         vertex 7.841320e+00 1.159800e+01 1.000000e+01
         vertex 4.851969e+00 1.313234e+01 1.000000e+01
         vertex 5.216242e+00 -2.559952e+00 1.000000e+01
      endloop
   endfacet
   facet normal 0.000000e+00 0.000000e+00 1.000000e+00
      outer loop
         vertex 4.851969e+00 1.313234e+01 1.000000e+01
         vertex 1.583125e+00 1.391020e+01 1.000000e+01
         vertex 5.216242e+00 -2.559952e+00 1.000000e+01
      endloop
   endfacet
   facet normal -0.000000e+00 0.000000e+00 1.000000e+00
      outer loop
         vertex 1.583125e+00 1.391020e+01 1.000000e+01
         vertex -1.776914e+00 1.388678e+01 1.000000e+01
         vertex -5.216242e+00 -2.559952e+00 1.000000e+01
      endloop
   endfacet
   facet normal -0.000000e+00 0.000000e+00 1.000000e+00
      outer loop
         vertex -1.776914e+00 1.388678e+01 1.000000e+01
         vertex -5.034595e+00 1.306342e+01 1.000000e+01
         vertex -5.216242e+00 -2.559952e+00 1.000000e+01
      endloop
   endfacet
   facet normal -0.000000e+00 0.000000e+00 1.000000e+00
      outer loop
         vertex -5.034595e+00 1.306342e+01 1.000000e+01
         vertex -8.002263e+00 1.148755e+01 1.000000e+01
         vertex -5.216242e+00 -2.559952e+00 1.000000e+01
      endloop
   endfacet
   facet normal -0.000000e+00 0.000000e+00 1.000000e+00
      outer loop
         vertex -8.002263e+00 1.148755e+01 1.000000e+01
         vertex -1.050897e+01 9.249951e+00 1.000000e+01
         vertex -5.216242e+00 -2.559952e+00 1.000000e+01
      endloop
   endfacet
   facet normal -0.000000e+00 0.000000e+00 1.000000e+00
      outer loop
         vertex -1.050897e+01 9.249951e+00 1.000000e+01
         vertex -1.241031e+01 6.479518e+00 1.000000e+01
         vertex -5.216242e+00 -2.559952e+00 1.000000e+01
      endloop
   endfacet
   facet normal -0.000000e+00 0.000000e+00 1.000000e+00
      outer loop
         vertex -1.241031e+01 6.479518e+00 1.000000e+01
         vertex -1.359677e+01 3.335838e+00 1.000000e+01
         vertex -5.216242e+00 -2.559952e+00 1.000000e+01
      endloop
   endfacet
   facet normal -0.000000e+00 0.000000e+00 1.000000e+00
      outer loop
         vertex -1.359677e+01 3.335838e+00 1.000000e+01
         vertex -1.400000e+01 1.714506e-15 1.000000e+01
         vertex -5.216242e+00 -2.559952e+00 1.000000e+01
      endloop
   endfacet
   facet normal 0.000000e+00 -0.000000e+00 1.000000e+00
      outer loop
         vertex -1.400000e+01 1.714506e-15 1.000000e+01
         vertex -1.360602e+01 -3.297909e+00 1.000000e+01
         vertex -5.216242e+00 -2.559952e+00 1.000000e+01
      endloop
   endfacet
   facet normal 0.000000e+00 -0.000000e+00 1.000000e+00
      outer loop
         vertex -1.360602e+01 -3.297909e+00 1.000000e+01
         vertex -1.244626e+01 -6.410203e+00 1.000000e+01
         vertex -5.216242e+00 -2.559952e+00 1.000000e+01
      endloop
   endfacet
   facet normal 0.000000e+00 -0.000000e+00 1.000000e+00
      outer loop
         vertex -1.244626e+01 -6.410203e+00 1.000000e+01
         vertex -1.058598e+01 -9.161714e+00 1.000000e+01
         vertex -5.216242e+00 -2.559952e+00 1.000000e+01
      endloop
   endfacet
   facet normal 0.000000e+00 -0.000000e+00 1.000000e+00
      outer loop
         vertex -1.058598e+01 -9.161714e+00 1.000000e+01
         vertex -8.129899e+00 -1.139758e+01 1.000000e+01
         vertex -5.216242e+00 -2.559952e+00 1.000000e+01
      endloop
   endfacet
   facet normal 0.000000e+00 -0.000000e+00 1.000000e+00
      outer loop
         vertex -8.129899e+00 -1.139758e+01 1.000000e+01
         vertex -5.216242e+00 -1.299195e+01 1.000000e+01
         vertex -5.216242e+00 -2.559952e+00 1.000000e+01
      endloop
   endfacet
   facet normal 0.000000e+00 1.000000e+00 0.000000e+00
      outer loop
         vertex -5.216242e+00 -2.559952e+00 2.956800e+01
         vertex 5.215757e+00 -2.559952e+00 2.956800e+01
         vertex -5.216242e+00 -2.559952e+00 1.000000e+01
      endloop
   endfacet
   facet normal 0.000000e+00 1.000000e+00 0.000000e+00
      outer loop
         vertex 5.215757e+00 -2.559952e+00 2.956800e+01
         vertex 5.216242e+00 -2.559952e+00 4.000000e+01
         vertex 5.216242e+00 -2.559952e+00 1.000000e+01
      endloop
   endfacet
   facet normal 0.000000e+00 1.000000e+00 0.000000e+00
      outer loop
         vertex 5.216242e+00 -2.559952e+00 1.000000e+01
         vertex -5.216242e+00 -2.559952e+00 1.000000e+01
         vertex 5.215757e+00 -2.559952e+00 2.956800e+01
      endloop
   endfacet
   facet normal -0.000000e+00 1.000000e+00 0.000000e+00
      outer loop
         vertex -5.216242e+00 1.309105e+01 2.956800e+01
         vertex -5.216242e+00 1.309105e+01 4.010000e+01
         vertex 5.216242e+00 1.309105e+01 4.010000e+01
      endloop
   endfacet
   facet normal 0.000000e+00 1.000000e+00 -0.000000e+00
      outer loop
         vertex 5.216242e+00 1.309105e+01 4.010000e+01
         vertex 5.216242e+00 1.309105e+01 2.956800e+01
         vertex -5.216242e+00 1.309105e+01 2.956800e+01
      endloop
   endfacet
   facet normal 0.000000e+00 -1.000000e+00 0.000000e+00
      outer loop
         vertex -5.216242e+00 -1.299195e+01 4.010000e+01
         vertex -5.216242e+00 -1.299195e+01 1.000000e+01
         vertex 5.216242e+00 -1.299195e+01 1.000000e+01
      endloop
   endfacet
   facet normal -0.000000e+00 -1.000000e+00 -0.000000e+00
      outer loop
         vertex 5.216242e+00 -1.299195e+01 1.000000e+01
         vertex 5.216242e+00 -1.299195e+01 4.010000e+01
         vertex -5.216242e+00 -1.299195e+01 4.010000e+01
      endloop
   endfacet
   facet normal 0.000000e+00 1.000000e+00 0.000000e+00
      outer loop
         vertex 3.215851e+00 -2.559952e+00 3.156800e+01
         vertex -3.216243e+00 -2.559952e+00 3.156800e+01
         vertex -3.216243e+00 -2.559952e+00 3.800000e+01
      endloop
   endfacet
   facet normal 0.000000e+00 1.000000e+00 0.000000e+00
      outer loop
         vertex -3.216243e+00 -2.559952e+00 3.800000e+01
         vertex 3.216150e+00 -2.559952e+00 3.800000e+01
         vertex 3.215851e+00 -2.559952e+00 3.156800e+01
      endloop
   endfacet
   facet normal -9.929397e-01 -1.186198e-01 0.000000e+00
      outer loop
         vertex -1.400000e+01 1.714506e-15 1.000000e+01
         vertex -1.400000e+01 1.714506e-15 0.000000e+00
         vertex -1.360602e+01 -3.297909e+00 1.000000e+01
      endloop
   endfacet
   facet normal -9.927087e-01 -1.205367e-01 -6.412561e-04
      outer loop
         vertex -1.400000e+01 1.714506e-15 0.000000e+00
         vertex -1.359319e+01 -3.350419e+00 0.000000e+00
         vertex -1.360602e+01 -3.297909e+00 1.000000e+01
      endloop
   endfacet
   facet normal -9.350155e-01 -3.546046e-01 -1.261653e-03
      outer loop
         vertex -1.359319e+01 -3.350419e+00 0.000000e+00
         vertex -1.239638e+01 -6.506124e+00 0.000000e+00
         vertex -1.244626e+01 -6.410203e+00 1.000000e+01
      endloop
   endfacet
   facet normal -8.229825e-01 -5.680637e-01 -1.861392e-03
      outer loop
         vertex -1.239638e+01 -6.506124e+00 0.000000e+00
         vertex -1.047915e+01 -9.283717e+00 0.000000e+00
         vertex -1.058598e+01 -9.161714e+00 1.000000e+01
      endloop
   endfacet
   facet normal -6.631207e-01 -7.485085e-01 -2.440411e-03
      outer loop
         vertex -1.047915e+01 -9.283717e+00 0.000000e+00
         vertex -7.952907e+00 -1.152177e+01 0.000000e+00
         vertex -8.129899e+00 -1.139758e+01 1.000000e+01
      endloop
   endfacet
   facet normal -4.647210e-01 -8.854521e-01 -2.998661e-03
      outer loop
         vertex -7.952907e+00 -1.152177e+01 0.000000e+00
         vertex -4.964468e+00 -1.309023e+01 0.000000e+00
         vertex -5.216242e+00 -1.299195e+01 1.000000e+01
      endloop
   endfacet
   facet normal -2.393157e-01 -9.709412e-01 -1.057135e-03
      outer loop
         vertex -4.964468e+00 -1.309023e+01 0.000000e+00
         vertex -1.687513e+00 -1.389792e+01 0.000000e+00
         vertex -1.776914e+00 -1.388678e+01 1.000000e+01
      endloop
   endfacet
   facet normal 0.000000e+00 -9.999994e-01 1.114749e-03
      outer loop
         vertex -1.687513e+00 -1.389792e+01 0.000000e+00
         vertex 1.687513e+00 -1.389792e+01 0.000000e+00
         vertex -1.776914e+00 -1.388678e+01 1.000000e+01
      endloop
   endfacet
   facet normal 2.393157e-01 -9.709412e-01 -1.057135e-03
      outer loop
         vertex 1.687513e+00 -1.389792e+01 0.000000e+00
         vertex 4.964468e+00 -1.309023e+01 0.000000e+00
         vertex 1.776914e+00 -1.388678e+01 1.000000e+01
      endloop
   endfacet
   facet normal 4.647210e-01 -8.854521e-01 -2.998661e-03
      outer loop
         vertex 4.964468e+00 -1.309023e+01 0.000000e+00
         vertex 7.952907e+00 -1.152177e+01 0.000000e+00
         vertex 5.216242e+00 -1.299195e+01 1.000000e+01
      endloop
   endfacet
   facet normal 6.631200e-01 -7.485077e-01 -2.845644e-03
      outer loop
         vertex 7.952907e+00 -1.152177e+01 0.000000e+00
         vertex 1.047915e+01 -9.283717e+00 0.000000e+00
         vertex 8.161651e+00 -1.137486e+01 1.000000e+01
      endloop
   endfacet
   facet normal 8.229809e-01 -5.680626e-01 -2.691071e-03
      outer loop
         vertex 1.047915e+01 -9.283717e+00 0.000000e+00
         vertex 1.239638e+01 -6.506124e+00 0.000000e+00
         vertex 1.063691e+01 -9.102531e+00 1.000000e+01
      endloop
   endfacet
   facet normal 9.350132e-01 -3.546038e-01 -2.534883e-03
      outer loop
         vertex 1.239638e+01 -6.506124e+00 0.000000e+00
         vertex 1.359319e+01 -3.350419e+00 0.000000e+00
         vertex 1.249945e+01 -6.305858e+00 1.000000e+01
      endloop
   endfacet
   facet normal 9.927061e-01 -1.205363e-01 -2.377095e-03
      outer loop
         vertex 1.359319e+01 -3.350419e+00 0.000000e+00
         vertex 1.400000e+01 -1.586351e-14 0.000000e+00
         vertex 1.364196e+01 -3.145941e+00 1.000000e+01
      endloop
   endfacet
   facet normal 9.927064e-01 1.205364e-01 -2.217712e-03
      outer loop
         vertex 1.400000e+01 -1.586351e-14 0.000000e+00
         vertex 1.359319e+01 3.350419e+00 0.000000e+00
         vertex 1.399864e+01 1.951949e-01 1.000000e+01
      endloop
   endfacet
   facet normal 9.350143e-01 3.546042e-01 -2.056748e-03
      outer loop
         vertex 1.359319e+01 3.350419e+00 0.000000e+00
         vertex 1.239638e+01 6.506124e+00 0.000000e+00
         vertex 1.354894e+01 3.525087e+00 1.000000e+01
      endloop
   endfacet
   facet normal 8.229824e-01 5.680637e-01 -1.894124e-03
      outer loop
         vertex 1.239638e+01 6.506124e+00 0.000000e+00
         vertex 1.047915e+01 9.283717e+00 0.000000e+00
         vertex 1.231876e+01 6.651919e+00 1.000000e+01
      endloop
   endfacet
   facet normal 6.631217e-01 7.485096e-01 -1.729938e-03
      outer loop
         vertex 1.047915e+01 9.283717e+00 0.000000e+00
         vertex 7.952907e+00 1.152177e+01 0.000000e+00
         vertex 1.037898e+01 9.395574e+00 1.000000e+01
      endloop
   endfacet
   facet normal 4.647225e-01 8.854550e-01 -1.564149e-03
      outer loop
         vertex 7.952907e+00 1.152177e+01 0.000000e+00
         vertex 4.964468e+00 1.309023e+01 0.000000e+00
         vertex 7.841320e+00 1.159800e+01 1.000000e+01
      endloop
   endfacet
   facet normal 2.393156e-01 9.709408e-01 -1.396764e-03
      outer loop
         vertex 4.964468e+00 1.309023e+01 0.000000e+00
         vertex 1.687513e+00 1.389792e+01 0.000000e+00
         vertex 4.851969e+00 1.313234e+01 1.000000e+01
      endloop
   endfacet
   facet normal 0.000000e+00 9.999992e-01 -1.227759e-03
      outer loop
         vertex 1.687513e+00 1.389792e+01 0.000000e+00
         vertex -1.687513e+00 1.389792e+01 0.000000e+00
         vertex 1.583125e+00 1.391020e+01 1.000000e+01
      endloop
   endfacet
   facet normal -2.393157e-01 9.709412e-01 -1.057135e-03
      outer loop
         vertex -1.687513e+00 1.389792e+01 0.000000e+00
         vertex -4.964468e+00 1.309023e+01 0.000000e+00
         vertex -1.776914e+00 1.388678e+01 1.000000e+01
      endloop
   endfacet
   facet normal -4.647229e-01 8.854557e-01 -8.849986e-04
      outer loop
         vertex -4.964468e+00 1.309023e+01 0.000000e+00
         vertex -7.952907e+00 1.152177e+01 0.000000e+00
         vertex -5.034595e+00 1.306342e+01 1.000000e+01
      endloop
   endfacet
   facet normal -6.631225e-01 7.485105e-01 -7.111259e-04
      outer loop
         vertex -7.952907e+00 1.152177e+01 0.000000e+00
         vertex -1.047915e+01 9.283717e+00 0.000000e+00
         vertex -8.002263e+00 1.148755e+01 1.000000e+01
      endloop
   endfacet
   facet normal -8.229838e-01 5.680646e-01 -5.357449e-04
      outer loop
         vertex -1.047915e+01 9.283717e+00 0.000000e+00
         vertex -1.239638e+01 6.506124e+00 0.000000e+00
         vertex -1.050897e+01 9.249951e+00 1.000000e+01
      endloop
   endfacet
   facet normal -9.350162e-01 3.546049e-01 -3.587753e-04
      outer loop
         vertex -1.239638e+01 6.506124e+00 0.000000e+00
         vertex -1.359319e+01 3.350419e+00 0.000000e+00
         vertex -1.241031e+01 6.479518e+00 1.000000e+01
      endloop
   endfacet
   facet normal -9.927089e-01 1.205367e-01 -1.802130e-04
      outer loop
         vertex -1.359319e+01 3.350419e+00 0.000000e+00
         vertex -1.400000e+01 1.714506e-15 0.000000e+00
         vertex -1.359677e+01 3.335838e+00 1.000000e+01
      endloop
   endfacet
   facet normal -9.927734e-01 1.200043e-01 0.000000e+00
      outer loop
         vertex -1.400000e+01 1.714506e-15 0.000000e+00
         vertex -1.400000e+01 1.714506e-15 1.000000e+01
         vertex -1.359677e+01 3.335838e+00 1.000000e+01
      endloop
   endfacet
   facet normal -9.355855e-01 3.531003e-01 1.793706e-04
      outer loop
         vertex -1.359677e+01 3.335838e+00 1.000000e+01
         vertex -1.241031e+01 6.479518e+00 1.000000e+01
         vertex -1.359319e+01 3.350419e+00 0.000000e+00
      endloop
   endfacet
   facet normal -8.245040e-01 5.658560e-01 3.571964e-04
      outer loop
         vertex -1.241031e+01 6.479518e+00 1.000000e+01
         vertex -1.050897e+01 9.249951e+00 1.000000e+01
         vertex -1.239638e+01 6.506124e+00 0.000000e+00
      endloop
   endfacet
   facet normal -6.659277e-01 7.460161e-01 5.334108e-04
      outer loop
         vertex -1.050897e+01 9.249951e+00 1.000000e+01
         vertex -8.002263e+00 1.148755e+01 1.000000e+01
         vertex -1.047915e+01 9.283717e+00 0.000000e+00
      endloop
   endfacet
   facet normal -4.689913e-01 8.832025e-01 7.080265e-04
      outer loop
         vertex -8.002263e+00 1.148755e+01 1.000000e+01
         vertex -5.034595e+00 1.306342e+01 1.000000e+01
         vertex -7.952907e+00 1.152177e+01 0.000000e+00
      endloop
   endfacet
   facet normal -2.450388e-01 9.695129e-01 8.809425e-04
      outer loop
         vertex -5.034595e+00 1.306342e+01 1.000000e+01
         vertex -1.776914e+00 1.388678e+01 1.000000e+01
         vertex -4.964468e+00 1.309023e+01 0.000000e+00
      endloop
   endfacet
   facet normal -6.971503e-03 9.999751e-01 1.052397e-03
      outer loop
         vertex -1.776914e+00 1.388678e+01 1.000000e+01
         vertex 1.583125e+00 1.391020e+01 1.000000e+01
         vertex -1.687513e+00 1.389792e+01 0.000000e+00
      endloop
   endfacet
   facet normal 2.314977e-01 9.728347e-01 1.222161e-03
      outer loop
         vertex 1.583125e+00 1.391020e+01 1.000000e+01
         vertex 4.851969e+00 1.313234e+01 1.000000e+01
         vertex 1.687513e+00 1.389792e+01 0.000000e+00
      endloop
   endfacet
   facet normal 4.566311e-01 8.896550e-01 1.390349e-03
      outer loop
         vertex 4.851969e+00 1.313234e+01 1.000000e+01
         vertex 7.841320e+00 1.159800e+01 1.000000e+01
         vertex 4.964468e+00 1.309023e+01 0.000000e+00
      endloop
   endfacet
   facet normal 6.554609e-01 7.552275e-01 1.556961e-03
      outer loop
         vertex 7.841320e+00 1.159800e+01 1.000000e+01
         vertex 1.037898e+01 9.395574e+00 1.000000e+01
         vertex 7.952907e+00 1.152177e+01 0.000000e+00
      endloop
   endfacet
   facet normal 8.165333e-01 5.772957e-01 1.721955e-03
      outer loop
         vertex 1.037898e+01 9.395574e+00 1.000000e+01
         vertex 1.231876e+01 6.651919e+00 1.000000e+01
         vertex 1.047915e+01 9.283717e+00 0.000000e+00
      endloop
   endfacet
   facet normal 9.305698e-01 3.661097e-01 1.885349e-03
      outer loop
         vertex 1.231876e+01 6.651919e+00 1.000000e+01
         vertex 1.354894e+01 3.525087e+00 1.000000e+01
         vertex 1.239638e+01 6.506124e+00 0.000000e+00
      endloop
   endfacet
   facet normal 9.910016e-01 1.338340e-01 2.047111e-03
      outer loop
         vertex 1.354894e+01 3.525087e+00 1.000000e+01
         vertex 1.399864e+01 1.951949e-01 1.000000e+01
         vertex 1.359319e+01 3.350419e+00 0.000000e+00
      endloop
   endfacet
   facet normal 9.943476e-01 -1.061507e-01 2.207327e-03
      outer loop
         vertex 1.399864e+01 1.951949e-01 1.000000e+01
         vertex 1.364196e+01 -3.145941e+00 1.000000e+01
         vertex 1.400000e+01 -1.586351e-14 0.000000e+00
      endloop
   endfacet
   facet normal 9.404150e-01 -3.400205e-01 2.365922e-03
      outer loop
         vertex 1.364196e+01 -3.145941e+00 1.000000e+01
         vertex 1.249945e+01 -6.305858e+00 1.000000e+01
         vertex 1.359319e+01 -3.350419e+00 0.000000e+00
      endloop
   endfacet
   facet normal 8.323108e-01 -5.543036e-01 2.522901e-03
      outer loop
         vertex 1.249945e+01 -6.305858e+00 1.000000e+01
         vertex 1.063691e+01 -9.102531e+00 1.000000e+01
         vertex 1.239638e+01 -6.506124e+00 0.000000e+00
      endloop
   endfacet
   facet normal 6.762619e-01 -7.366564e-01 2.678283e-03
      outer loop
         vertex 1.063691e+01 -9.102531e+00 1.000000e+01
         vertex 8.161651e+00 -1.137486e+01 1.000000e+01
         vertex 1.047915e+01 -9.283717e+00 0.000000e+00
      endloop
   endfacet
   facet normal 4.812579e-01 -8.765745e-01 2.832094e-03
      outer loop
         vertex 8.161651e+00 -1.137486e+01 1.000000e+01
         vertex 5.216242e+00 -1.299195e+01 1.000000e+01
         vertex 7.952907e+00 -1.152177e+01 0.000000e+00
      endloop
   endfacet
   facet normal 2.517906e-01 -9.677765e-01 3.171413e-03
      outer loop
         vertex 5.216242e+00 -1.299195e+01 1.000000e+01
         vertex 1.776914e+00 -1.388678e+01 1.000000e+01
         vertex 4.964468e+00 -1.309023e+01 0.000000e+00
      endloop
   endfacet
   facet normal 0.000000e+00 -9.999994e-01 1.114749e-03
      outer loop
         vertex 1.776914e+00 -1.388678e+01 1.000000e+01
         vertex -1.776914e+00 -1.388678e+01 1.000000e+01
         vertex 1.687513e+00 -1.389792e+01 0.000000e+00
      endloop
   endfacet
   facet normal -2.517906e-01 -9.677765e-01 3.171413e-03
      outer loop
         vertex -1.776914e+00 -1.388678e+01 1.000000e+01
         vertex -5.216242e+00 -1.299195e+01 1.000000e+01
         vertex -4.964468e+00 -1.309023e+01 0.000000e+00
      endloop
   endfacet
   facet normal -4.800357e-01 -8.772457e-01 2.398945e-03
      outer loop
         vertex -5.216242e+00 -1.299195e+01 1.000000e+01
         vertex -8.129899e+00 -1.139758e+01 1.000000e+01
         vertex -7.952907e+00 -1.152177e+01 0.000000e+00
      endloop
   endfacet
   facet normal -6.731760e-01 -7.394800e-01 1.830339e-03
      outer loop
         vertex -8.129899e+00 -1.139758e+01 1.000000e+01
         vertex -1.058598e+01 -9.161714e+00 1.000000e+01
         vertex -1.047915e+01 -9.283717e+00 0.000000e+00
      endloop
   endfacet
   facet normal -8.284283e-01 -5.600938e-01 1.240987e-03
      outer loop
         vertex -1.058598e+01 -9.161714e+00 1.000000e+01
         vertex -1.244626e+01 -6.410203e+00 1.000000e+01
         vertex -1.239638e+01 -6.506124e+00 0.000000e+00
      endloop
   endfacet
   facet normal -9.370540e-01 -3.491838e-01 6.308008e-04
      outer loop
         vertex -1.244626e+01 -6.410203e+00 1.000000e+01
         vertex -1.360602e+01 -3.297909e+00 1.000000e+01
         vertex -1.359319e+01 -3.350419e+00 0.000000e+00
      endloop
   endfacet
   facet normal 0.000000e+00 0.000000e+00 1.000000e+00
      outer loop
         vertex 1.776914e+00 -1.388678e+01 1.000000e+01
         vertex 5.216242e+00 -1.299195e+01 1.000000e+01
         vertex -5.216242e+00 -1.299195e+01 1.000000e+01
      endloop
   endfacet
   facet normal 0.000000e+00 -0.000000e+00 1.000000e+00
      outer loop
         vertex -5.216242e+00 -1.299195e+01 1.000000e+01
         vertex -1.776914e+00 -1.388678e+01 1.000000e+01
         vertex 1.776914e+00 -1.388678e+01 1.000000e+01
      endloop
   endfacet
   facet normal 0.000000e+00 0.000000e+00 -1.000000e+00
      outer loop
         vertex -9.798733e+00 -1.408845e+00 0.000000e+00
         vertex -1.359319e+01 -3.350419e+00 0.000000e+00
         vertex -1.400000e+01 1.714506e-15 0.000000e+00
      endloop
   endfacet
   facet normal 0.000000e+00 0.000000e+00 -1.000000e+00
      outer loop
         vertex -9.004897e+00 -4.112399e+00 0.000000e+00
         vertex -1.239638e+01 -6.506124e+00 0.000000e+00
         vertex -1.359319e+01 -3.350419e+00 0.000000e+00
      endloop
   endfacet
   facet normal 0.000000e+00 0.000000e+00 -1.000000e+00
      outer loop
         vertex -7.481539e+00 -6.482790e+00 0.000000e+00
         vertex -1.047915e+01 -9.283717e+00 0.000000e+00
         vertex -1.239638e+01 -6.506124e+00 0.000000e+00
      endloop
   endfacet
   facet normal 0.000000e+00 0.000000e+00 -1.000000e+00
      outer loop
         vertex -7.481539e+00 -6.482790e+00 0.000000e+00
         vertex -7.952907e+00 -1.152177e+01 0.000000e+00
         vertex -1.047915e+01 -9.283717e+00 0.000000e+00
      endloop
   endfacet
   facet normal 0.000000e+00 0.000000e+00 -1.000000e+00
      outer loop
         vertex -5.352071e+00 -8.327985e+00 0.000000e+00
         vertex -4.964468e+00 -1.309023e+01 0.000000e+00
         vertex -7.952907e+00 -1.152177e+01 0.000000e+00
      endloop
   endfacet
   facet normal 0.000000e+00 0.000000e+00 -1.000000e+00
      outer loop
         vertex -2.789010e+00 -9.498496e+00 0.000000e+00
         vertex -1.687513e+00 -1.389792e+01 0.000000e+00
         vertex -4.964468e+00 -1.309023e+01 0.000000e+00
      endloop
   endfacet
   facet normal 0.000000e+00 0.000000e+00 -1.000000e+00
      outer loop
         vertex -6.061692e-16 -9.899495e+00 0.000000e+00
         vertex 1.687513e+00 -1.389792e+01 0.000000e+00
         vertex -1.687513e+00 -1.389792e+01 0.000000e+00
      endloop
   endfacet
   facet normal -0.000000e+00 0.000000e+00 -1.000000e+00
      outer loop
         vertex 2.789010e+00 -9.498496e+00 0.000000e+00
         vertex 4.964468e+00 -1.309023e+01 0.000000e+00
         vertex 1.687513e+00 -1.389792e+01 0.000000e+00
      endloop
   endfacet
   facet normal -0.000000e+00 0.000000e+00 -1.000000e+00
      outer loop
         vertex 5.352071e+00 -8.327985e+00 0.000000e+00
         vertex 7.952907e+00 -1.152177e+01 0.000000e+00
         vertex 4.964468e+00 -1.309023e+01 0.000000e+00
      endloop
   endfacet
   facet normal -0.000000e+00 0.000000e+00 -1.000000e+00
      outer loop
         vertex 7.481539e+00 -6.482790e+00 0.000000e+00
         vertex 1.047915e+01 -9.283717e+00 0.000000e+00
         vertex 7.952907e+00 -1.152177e+01 0.000000e+00
      endloop
   endfacet
   facet normal -0.000000e+00 0.000000e+00 -1.000000e+00
      outer loop
         vertex 7.481539e+00 -6.482790e+00 0.000000e+00
         vertex 1.239638e+01 -6.506124e+00 0.000000e+00
         vertex 1.047915e+01 -9.283717e+00 0.000000e+00
      endloop
   endfacet
   facet normal 0.000000e+00 0.000000e+00 -1.000000e+00
      outer loop
         vertex 9.004897e+00 -4.112399e+00 0.000000e+00
         vertex 1.359319e+01 -3.350419e+00 0.000000e+00
         vertex 1.239638e+01 -6.506124e+00 0.000000e+00
      endloop
   endfacet
   facet normal 0.000000e+00 0.000000e+00 -1.000000e+00
      outer loop
         vertex 9.798733e+00 -1.408845e+00 0.000000e+00
         vertex 1.400000e+01 -1.586351e-14 0.000000e+00
         vertex 1.359319e+01 -3.350419e+00 0.000000e+00
      endloop
   endfacet
   facet normal 0.000000e+00 -0.000000e+00 -1.000000e+00
      outer loop
         vertex 9.798733e+00 1.408845e+00 0.000000e+00
         vertex 1.359319e+01 3.350419e+00 0.000000e+00
         vertex 1.400000e+01 -1.586351e-14 0.000000e+00
      endloop
   endfacet
   facet normal 0.000000e+00 -0.000000e+00 -1.000000e+00
      outer loop
         vertex 9.004897e+00 4.112399e+00 0.000000e+00
         vertex 1.239638e+01 6.506124e+00 0.000000e+00
         vertex 1.359319e+01 3.350419e+00 0.000000e+00
      endloop
   endfacet
   facet normal 0.000000e+00 -0.000000e+00 -1.000000e+00
      outer loop
         vertex 7.481539e+00 6.482790e+00 0.000000e+00
         vertex 1.047915e+01 9.283717e+00 0.000000e+00
         vertex 1.239638e+01 6.506124e+00 0.000000e+00
      endloop
   endfacet
   facet normal 0.000000e+00 -0.000000e+00 -1.000000e+00
      outer loop
         vertex 7.481539e+00 6.482790e+00 0.000000e+00
         vertex 7.952907e+00 1.152177e+01 0.000000e+00
         vertex 1.047915e+01 9.283717e+00 0.000000e+00
      endloop
   endfacet
   facet normal 0.000000e+00 0.000000e+00 -1.000000e+00
      outer loop
         vertex 5.352071e+00 8.327985e+00 0.000000e+00
         vertex 4.964468e+00 1.309023e+01 0.000000e+00
         vertex 7.952907e+00 1.152177e+01 0.000000e+00
      endloop
   endfacet
   facet normal 0.000000e+00 0.000000e+00 -1.000000e+00
      outer loop
         vertex 2.789010e+00 9.498496e+00 0.000000e+00
         vertex 1.687513e+00 1.389792e+01 0.000000e+00
         vertex 4.964468e+00 1.309023e+01 0.000000e+00
      endloop
   endfacet
   facet normal 0.000000e+00 0.000000e+00 -1.000000e+00
      outer loop
         vertex -5.002428e-15 9.899495e+00 0.000000e+00
         vertex -1.687513e+00 1.389792e+01 0.000000e+00
         vertex 1.687513e+00 1.389792e+01 0.000000e+00
      endloop
   endfacet
   facet normal 0.000000e+00 0.000000e+00 -1.000000e+00
      outer loop
         vertex -2.789010e+00 9.498496e+00 0.000000e+00
         vertex -4.964468e+00 1.309023e+01 0.000000e+00
         vertex -1.687513e+00 1.389792e+01 0.000000e+00
      endloop
   endfacet
   facet normal 0.000000e+00 0.000000e+00 -1.000000e+00
      outer loop
         vertex -5.352071e+00 8.327985e+00 0.000000e+00
         vertex -7.952907e+00 1.152177e+01 0.000000e+00
         vertex -4.964468e+00 1.309023e+01 0.000000e+00
      endloop
   endfacet
   facet normal 0.000000e+00 0.000000e+00 -1.000000e+00
      outer loop
         vertex -7.481539e+00 6.482790e+00 0.000000e+00
         vertex -1.047915e+01 9.283717e+00 0.000000e+00
         vertex -7.952907e+00 1.152177e+01 0.000000e+00
      endloop
   endfacet
   facet normal 0.000000e+00 0.000000e+00 -1.000000e+00
      outer loop
         vertex -7.481539e+00 6.482790e+00 0.000000e+00
         vertex -1.239638e+01 6.506124e+00 0.000000e+00
         vertex -1.047915e+01 9.283717e+00 0.000000e+00
      endloop
   endfacet
   facet normal 0.000000e+00 0.000000e+00 -1.000000e+00
      outer loop
         vertex -9.004897e+00 4.112399e+00 0.000000e+00
         vertex -1.359319e+01 3.350419e+00 0.000000e+00
         vertex -1.239638e+01 6.506124e+00 0.000000e+00
      endloop
   endfacet
   facet normal 0.000000e+00 0.000000e+00 -1.000000e+00
      outer loop
         vertex -9.798733e+00 1.408845e+00 0.000000e+00
         vertex -1.400000e+01 1.714506e-15 0.000000e+00
         vertex -1.359319e+01 3.350419e+00 0.000000e+00
      endloop
   endfacet
   facet normal 0.000000e+00 0.000000e+00 -1.000000e+00
      outer loop
         vertex -1.687513e+00 -1.389792e+01 0.000000e+00
         vertex -2.789010e+00 -9.498496e+00 0.000000e+00
         vertex -6.061692e-16 -9.899495e+00 0.000000e+00
      endloop
   endfacet
   facet normal 0.000000e+00 0.000000e+00 -1.000000e+00
      outer loop
         vertex -4.964468e+00 -1.309023e+01 0.000000e+00
         vertex -5.352071e+00 -8.327985e+00 0.000000e+00
         vertex -2.789010e+00 -9.498496e+00 0.000000e+00
      endloop
   endfacet
   facet normal 0.000000e+00 -0.000000e+00 -1.000000e+00
      outer loop
         vertex -7.952907e+00 -1.152177e+01 0.000000e+00
         vertex -7.481539e+00 -6.482790e+00 0.000000e+00
         vertex -5.352071e+00 -8.327985e+00 0.000000e+00
      endloop
   endfacet
   facet normal 0.000000e+00 -0.000000e+00 -1.000000e+00
      outer loop
         vertex -1.239638e+01 -6.506124e+00 0.000000e+00
         vertex -9.004897e+00 -4.112399e+00 0.000000e+00
         vertex -7.481539e+00 -6.482790e+00 0.000000e+00
      endloop
   endfacet
   facet normal 0.000000e+00 -0.000000e+00 -1.000000e+00
      outer loop
         vertex -1.359319e+01 -3.350419e+00 0.000000e+00
         vertex -9.798733e+00 -1.408845e+00 0.000000e+00
         vertex -9.004897e+00 -4.112399e+00 0.000000e+00
      endloop
   endfacet
   facet normal 0.000000e+00 -0.000000e+00 -1.000000e+00
      outer loop
         vertex -1.400000e+01 1.714506e-15 0.000000e+00
         vertex -9.798733e+00 1.408845e+00 0.000000e+00
         vertex -9.798733e+00 -1.408845e+00 0.000000e+00
      endloop
   endfacet
   facet normal 0.000000e+00 0.000000e+00 -1.000000e+00
      outer loop
         vertex -1.359319e+01 3.350419e+00 0.000000e+00
         vertex -9.004897e+00 4.112399e+00 0.000000e+00
         vertex -9.798733e+00 1.408845e+00 0.000000e+00
      endloop
   endfacet
   facet normal -0.000000e+00 0.000000e+00 -1.000000e+00
      outer loop
         vertex -1.239638e+01 6.506124e+00 0.000000e+00
         vertex -7.481539e+00 6.482790e+00 0.000000e+00
         vertex -9.004897e+00 4.112399e+00 0.000000e+00
      endloop
   endfacet
   facet normal -0.000000e+00 0.000000e+00 -1.000000e+00
      outer loop
         vertex -7.952907e+00 1.152177e+01 0.000000e+00
         vertex -5.352071e+00 8.327985e+00 0.000000e+00
         vertex -7.481539e+00 6.482790e+00 0.000000e+00
      endloop
   endfacet
   facet normal -0.000000e+00 0.000000e+00 -1.000000e+00
      outer loop
         vertex -4.964468e+00 1.309023e+01 0.000000e+00
         vertex -2.789010e+00 9.498496e+00 0.000000e+00
         vertex -5.352071e+00 8.327985e+00 0.000000e+00
      endloop
   endfacet
   facet normal -0.000000e+00 0.000000e+00 -1.000000e+00
      outer loop
         vertex -1.687513e+00 1.389792e+01 0.000000e+00
         vertex -5.002428e-15 9.899495e+00 0.000000e+00
         vertex -2.789010e+00 9.498496e+00 0.000000e+00
      endloop
   endfacet
   facet normal 0.000000e+00 0.000000e+00 -1.000000e+00
      outer loop
         vertex 1.687513e+00 1.389792e+01 0.000000e+00
         vertex 2.789010e+00 9.498496e+00 0.000000e+00
         vertex -5.002428e-15 9.899495e+00 0.000000e+00
      endloop
   endfacet
   facet normal 0.000000e+00 0.000000e+00 -1.000000e+00
      outer loop
         vertex 4.964468e+00 1.309023e+01 0.000000e+00
         vertex 5.352071e+00 8.327985e+00 0.000000e+00
         vertex 2.789010e+00 9.498496e+00 0.000000e+00
      endloop
   endfacet
   facet normal 0.000000e+00 0.000000e+00 -1.000000e+00
      outer loop
         vertex 7.952907e+00 1.152177e+01 0.000000e+00
         vertex 7.481539e+00 6.482790e+00 0.000000e+00
         vertex 5.352071e+00 8.327985e+00 0.000000e+00
      endloop
   endfacet
   facet normal 0.000000e+00 0.000000e+00 -1.000000e+00
      outer loop
         vertex 1.239638e+01 6.506124e+00 0.000000e+00
         vertex 9.004897e+00 4.112399e+00 0.000000e+00
         vertex 7.481539e+00 6.482790e+00 0.000000e+00
      endloop
   endfacet
   facet normal 0.000000e+00 0.000000e+00 -1.000000e+00
      outer loop
         vertex 1.359319e+01 3.350419e+00 0.000000e+00
         vertex 9.798733e+00 1.408845e+00 0.000000e+00
         vertex 9.004897e+00 4.112399e+00 0.000000e+00
      endloop
   endfacet
   facet normal 0.000000e+00 0.000000e+00 -1.000000e+00
      outer loop
         vertex 1.400000e+01 -1.586351e-14 0.000000e+00
         vertex 9.798733e+00 -1.408845e+00 0.000000e+00
         vertex 9.798733e+00 1.408845e+00 0.000000e+00
      endloop
   endfacet
   facet normal 0.000000e+00 0.000000e+00 -1.000000e+00
      outer loop
         vertex 1.359319e+01 -3.350419e+00 0.000000e+00
         vertex 9.004897e+00 -4.112399e+00 0.000000e+00
         vertex 9.798733e+00 -1.408845e+00 0.000000e+00
      endloop
   endfacet
   facet normal 0.000000e+00 0.000000e+00 -1.000000e+00
      outer loop
         vertex 1.239638e+01 -6.506124e+00 0.000000e+00
         vertex 7.481539e+00 -6.482790e+00 0.000000e+00
         vertex 9.004897e+00 -4.112399e+00 0.000000e+00
      endloop
   endfacet
   facet normal 0.000000e+00 0.000000e+00 -1.000000e+00
      outer loop
         vertex 7.952907e+00 -1.152177e+01 0.000000e+00
         vertex 5.352071e+00 -8.327985e+00 0.000000e+00
         vertex 7.481539e+00 -6.482790e+00 0.000000e+00
      endloop
   endfacet
   facet normal 0.000000e+00 0.000000e+00 -1.000000e+00
      outer loop
         vertex 4.964468e+00 -1.309023e+01 0.000000e+00
         vertex 2.789010e+00 -9.498496e+00 0.000000e+00
         vertex 5.352071e+00 -8.327985e+00 0.000000e+00
      endloop
   endfacet
   facet normal 0.000000e+00 0.000000e+00 -1.000000e+00
      outer loop
         vertex 1.687513e+00 -1.389792e+01 0.000000e+00
         vertex -6.061692e-16 -9.899495e+00 0.000000e+00
         vertex 2.789010e+00 -9.498496e+00 0.000000e+00
      endloop
   endfacet
   facet normal 1.423148e-01 9.898214e-01 0.000000e+00
      outer loop
         vertex -2.789010e+00 -9.498496e+00 0.000000e+00
         vertex -2.789010e+00 -9.498496e+00 5.000000e+00
         vertex -6.061692e-16 -9.899495e+00 5.000000e+00
      endloop
   endfacet
   facet normal 1.423148e-01 9.898214e-01 0.000000e+00
      outer loop
         vertex -6.061692e-16 -9.899495e+00 0.000000e+00
         vertex -2.789010e+00 -9.498496e+00 0.000000e+00
         vertex -6.061692e-16 -9.899495e+00 5.000000e+00
      endloop
   endfacet
   facet normal 4.154152e-01 9.096319e-01 0.000000e+00
      outer loop
         vertex -5.352071e+00 -8.327985e+00 0.000000e+00
         vertex -5.352071e+00 -8.327985e+00 5.000000e+00
         vertex -2.789010e+00 -9.498496e+00 5.000000e+00
      endloop
   endfacet
   facet normal 4.154152e-01 9.096319e-01 0.000000e+00
      outer loop
         vertex -2.789010e+00 -9.498496e+00 0.000000e+00
         vertex -5.352071e+00 -8.327985e+00 0.000000e+00
         vertex -2.789010e+00 -9.498496e+00 5.000000e+00
      endloop
   endfacet
   facet normal 6.548606e-01 7.557497e-01 0.000000e+00
      outer loop
         vertex -7.481539e+00 -6.482790e+00 0.000000e+00
         vertex -7.481539e+00 -6.482790e+00 5.000000e+00
         vertex -5.352071e+00 -8.327985e+00 5.000000e+00
      endloop
   endfacet
   facet normal 6.548606e-01 7.557497e-01 0.000000e+00
      outer loop
         vertex -5.352071e+00 -8.327985e+00 0.000000e+00
         vertex -7.481539e+00 -6.482790e+00 0.000000e+00
         vertex -5.352071e+00 -8.327985e+00 5.000000e+00
      endloop
   endfacet
   facet normal 8.412536e-01 5.406407e-01 0.000000e+00
      outer loop
         vertex -9.004897e+00 -4.112399e+00 0.000000e+00
         vertex -9.004897e+00 -4.112399e+00 5.000000e+00
         vertex -7.481539e+00 -6.482790e+00 5.000000e+00
      endloop
   endfacet
   facet normal 8.412536e-01 5.406407e-01 0.000000e+00
      outer loop
         vertex -7.481539e+00 -6.482790e+00 0.000000e+00
         vertex -9.004897e+00 -4.112399e+00 0.000000e+00
         vertex -7.481539e+00 -6.482790e+00 5.000000e+00
      endloop
   endfacet
   facet normal 9.594929e-01 2.817328e-01 0.000000e+00
      outer loop
         vertex -9.798733e+00 -1.408845e+00 0.000000e+00
         vertex -9.798733e+00 -1.408845e+00 5.000000e+00
         vertex -9.004897e+00 -4.112399e+00 5.000000e+00
      endloop
   endfacet
   facet normal 9.594929e-01 2.817328e-01 0.000000e+00
      outer loop
         vertex -9.004897e+00 -4.112399e+00 0.000000e+00
         vertex -9.798733e+00 -1.408845e+00 0.000000e+00
         vertex -9.004897e+00 -4.112399e+00 5.000000e+00
      endloop
   endfacet
   facet normal 1.000000e+00 0.000000e+00 0.000000e+00
      outer loop
         vertex -9.798733e+00 1.408845e+00 0.000000e+00
         vertex -9.798733e+00 1.408845e+00 5.000000e+00
         vertex -9.798733e+00 -1.408845e+00 5.000000e+00
      endloop
   endfacet
   facet normal 1.000000e+00 0.000000e+00 0.000000e+00
      outer loop
         vertex -9.798733e+00 -1.408845e+00 0.000000e+00
         vertex -9.798733e+00 1.408845e+00 0.000000e+00
         vertex -9.798733e+00 -1.408845e+00 5.000000e+00
      endloop
   endfacet
   facet normal 9.594929e-01 -2.817328e-01 0.000000e+00
      outer loop
         vertex -9.004897e+00 4.112399e+00 0.000000e+00
         vertex -9.004897e+00 4.112399e+00 5.000000e+00
         vertex -9.798733e+00 1.408845e+00 5.000000e+00
      endloop
   endfacet
   facet normal 9.594929e-01 -2.817328e-01 0.000000e+00
      outer loop
         vertex -9.798733e+00 1.408845e+00 0.000000e+00
         vertex -9.004897e+00 4.112399e+00 0.000000e+00
         vertex -9.798733e+00 1.408845e+00 5.000000e+00
      endloop
   endfacet
   facet normal 8.412536e-01 -5.406407e-01 0.000000e+00
      outer loop
         vertex -7.481539e+00 6.482790e+00 0.000000e+00
         vertex -7.481539e+00 6.482790e+00 5.000000e+00
         vertex -9.004897e+00 4.112399e+00 5.000000e+00
      endloop
   endfacet
   facet normal 8.412536e-01 -5.406407e-01 0.000000e+00
      outer loop
         vertex -9.004897e+00 4.112399e+00 0.000000e+00
         vertex -7.481539e+00 6.482790e+00 0.000000e+00
         vertex -9.004897e+00 4.112399e+00 5.000000e+00
      endloop
   endfacet
   facet normal 6.548606e-01 -7.557497e-01 0.000000e+00
      outer loop
         vertex -5.352071e+00 8.327985e+00 0.000000e+00
         vertex -5.352071e+00 8.327985e+00 5.000000e+00
         vertex -7.481539e+00 6.482790e+00 5.000000e+00
      endloop
   endfacet
   facet normal 6.548606e-01 -7.557497e-01 0.000000e+00
      outer loop
         vertex -7.481539e+00 6.482790e+00 0.000000e+00
         vertex -5.352071e+00 8.327985e+00 0.000000e+00
         vertex -7.481539e+00 6.482790e+00 5.000000e+00
      endloop
   endfacet
   facet normal 4.154152e-01 -9.096319e-01 0.000000e+00
      outer loop
         vertex -2.789010e+00 9.498496e+00 0.000000e+00
         vertex -2.789010e+00 9.498496e+00 5.000000e+00
         vertex -5.352071e+00 8.327985e+00 5.000000e+00
      endloop
   endfacet
   facet normal 4.154152e-01 -9.096319e-01 0.000000e+00
      outer loop
         vertex -5.352071e+00 8.327985e+00 0.000000e+00
         vertex -2.789010e+00 9.498496e+00 0.000000e+00
         vertex -5.352071e+00 8.327985e+00 5.000000e+00
      endloop
   endfacet
   facet normal 1.423148e-01 -9.898214e-01 0.000000e+00
      outer loop
         vertex -5.002428e-15 9.899495e+00 0.000000e+00
         vertex -5.002428e-15 9.899495e+00 5.000000e+00
         vertex -2.789010e+00 9.498496e+00 5.000000e+00
      endloop
   endfacet
   facet normal 1.423148e-01 -9.898214e-01 0.000000e+00
      outer loop
         vertex -2.789010e+00 9.498496e+00 0.000000e+00
         vertex -5.002428e-15 9.899495e+00 0.000000e+00
         vertex -2.789010e+00 9.498496e+00 5.000000e+00
      endloop
   endfacet
   facet normal -1.423148e-01 -9.898214e-01 -0.000000e+00
      outer loop
         vertex 2.789010e+00 9.498496e+00 0.000000e+00
         vertex 2.789010e+00 9.498496e+00 5.000000e+00
         vertex -5.002428e-15 9.899495e+00 5.000000e+00
      endloop
   endfacet
   facet normal -1.423148e-01 -9.898214e-01 0.000000e+00
      outer loop
         vertex -5.002428e-15 9.899495e+00 0.000000e+00
         vertex 2.789010e+00 9.498496e+00 0.000000e+00
         vertex -5.002428e-15 9.899495e+00 5.000000e+00
      endloop
   endfacet
   facet normal -4.154152e-01 -9.096319e-01 -0.000000e+00
      outer loop
         vertex 5.352071e+00 8.327985e+00 0.000000e+00
         vertex 5.352071e+00 8.327985e+00 5.000000e+00
         vertex 2.789010e+00 9.498496e+00 5.000000e+00
      endloop
   endfacet
   facet normal -4.154152e-01 -9.096319e-01 0.000000e+00
      outer loop
         vertex 2.789010e+00 9.498496e+00 0.000000e+00
         vertex 5.352071e+00 8.327985e+00 0.000000e+00
         vertex 2.789010e+00 9.498496e+00 5.000000e+00
      endloop
   endfacet
   facet normal -6.548606e-01 -7.557497e-01 -0.000000e+00
      outer loop
         vertex 7.481539e+00 6.482790e+00 0.000000e+00
         vertex 7.481539e+00 6.482790e+00 5.000000e+00
         vertex 5.352071e+00 8.327985e+00 5.000000e+00
      endloop
   endfacet
   facet normal -6.548606e-01 -7.557497e-01 0.000000e+00
      outer loop
         vertex 5.352071e+00 8.327985e+00 0.000000e+00
         vertex 7.481539e+00 6.482790e+00 0.000000e+00
         vertex 5.352071e+00 8.327985e+00 5.000000e+00
      endloop
   endfacet
   facet normal -8.412536e-01 -5.406407e-01 -0.000000e+00
      outer loop
         vertex 9.004897e+00 4.112399e+00 0.000000e+00
         vertex 9.004897e+00 4.112399e+00 5.000000e+00
         vertex 7.481539e+00 6.482790e+00 5.000000e+00
      endloop
   endfacet
   facet normal -8.412536e-01 -5.406407e-01 0.000000e+00
      outer loop
         vertex 7.481539e+00 6.482790e+00 0.000000e+00
         vertex 9.004897e+00 4.112399e+00 0.000000e+00
         vertex 7.481539e+00 6.482790e+00 5.000000e+00
      endloop
   endfacet
   facet normal -9.594929e-01 -2.817328e-01 -0.000000e+00
      outer loop
         vertex 9.798733e+00 1.408845e+00 0.000000e+00
         vertex 9.798733e+00 1.408845e+00 5.000000e+00
         vertex 9.004897e+00 4.112399e+00 5.000000e+00
      endloop
   endfacet
   facet normal -9.594929e-01 -2.817328e-01 0.000000e+00
      outer loop
         vertex 9.004897e+00 4.112399e+00 0.000000e+00
         vertex 9.798733e+00 1.408845e+00 0.000000e+00
         vertex 9.004897e+00 4.112399e+00 5.000000e+00
      endloop
   endfacet
   facet normal -1.000000e+00 0.000000e+00 0.000000e+00
      outer loop
         vertex 9.798733e+00 -1.408845e+00 0.000000e+00
         vertex 9.798733e+00 -1.408845e+00 5.000000e+00
         vertex 9.798733e+00 1.408845e+00 5.000000e+00
      endloop
   endfacet
   facet normal -1.000000e+00 0.000000e+00 0.000000e+00
      outer loop
         vertex 9.798733e+00 1.408845e+00 0.000000e+00
         vertex 9.798733e+00 -1.408845e+00 0.000000e+00
         vertex 9.798733e+00 1.408845e+00 5.000000e+00
      endloop
   endfacet
   facet normal -9.594929e-01 2.817328e-01 0.000000e+00
      outer loop
         vertex 9.004897e+00 -4.112399e+00 0.000000e+00
         vertex 9.004897e+00 -4.112399e+00 5.000000e+00
         vertex 9.798733e+00 -1.408845e+00 5.000000e+00
      endloop
   endfacet
   facet normal -9.594929e-01 2.817328e-01 0.000000e+00
      outer loop
         vertex 9.798733e+00 -1.408845e+00 0.000000e+00
         vertex 9.004897e+00 -4.112399e+00 0.000000e+00
         vertex 9.798733e+00 -1.408845e+00 5.000000e+00
      endloop
   endfacet
   facet normal -8.412536e-01 5.406407e-01 0.000000e+00
      outer loop
         vertex 7.481539e+00 -6.482790e+00 0.000000e+00
         vertex 7.481539e+00 -6.482790e+00 5.000000e+00
         vertex 9.004897e+00 -4.112399e+00 5.000000e+00
      endloop
   endfacet
   facet normal -8.412536e-01 5.406407e-01 0.000000e+00
      outer loop
         vertex 9.004897e+00 -4.112399e+00 0.000000e+00
         vertex 7.481539e+00 -6.482790e+00 0.000000e+00
         vertex 9.004897e+00 -4.112399e+00 5.000000e+00
      endloop
   endfacet
   facet normal -6.548606e-01 7.557497e-01 0.000000e+00
      outer loop
         vertex 5.352071e+00 -8.327985e+00 0.000000e+00
         vertex 5.352071e+00 -8.327985e+00 5.000000e+00
         vertex 7.481539e+00 -6.482790e+00 5.000000e+00
      endloop
   endfacet
   facet normal -6.548606e-01 7.557497e-01 0.000000e+00
      outer loop
         vertex 7.481539e+00 -6.482790e+00 0.000000e+00
         vertex 5.352071e+00 -8.327985e+00 0.000000e+00
         vertex 7.481539e+00 -6.482790e+00 5.000000e+00
      endloop
   endfacet
   facet normal -4.154152e-01 9.096319e-01 0.000000e+00
      outer loop
         vertex 2.789010e+00 -9.498496e+00 0.000000e+00
         vertex 2.789010e+00 -9.498496e+00 5.000000e+00
         vertex 5.352071e+00 -8.327985e+00 5.000000e+00
      endloop
   endfacet
   facet normal -4.154152e-01 9.096319e-01 0.000000e+00
      outer loop
         vertex 5.352071e+00 -8.327985e+00 0.000000e+00
         vertex 2.789010e+00 -9.498496e+00 0.000000e+00
         vertex 5.352071e+00 -8.327985e+00 5.000000e+00
      endloop
   endfacet
   facet normal -1.423148e-01 9.898214e-01 0.000000e+00
      outer loop
         vertex 1.818508e-15 -9.899495e+00 0.000000e+00
         vertex 1.818508e-15 -9.899495e+00 5.000000e+00
         vertex 2.789010e+00 -9.498496e+00 5.000000e+00
      endloop
   endfacet
   facet normal -1.423148e-01 9.898214e-01 0.000000e+00
      outer loop
         vertex 2.789010e+00 -9.498496e+00 0.000000e+00
         vertex 1.818508e-15 -9.899495e+00 0.000000e+00
         vertex 2.789010e+00 -9.498496e+00 5.000000e+00
      endloop
   endfacet
   facet normal 0.000000e+00 0.000000e+00 -1.000000e+00
      outer loop
         vertex 2.789010e+00 -9.498496e+00 5.000000e+00
         vertex -6.061692e-16 -9.899495e+00 5.000000e+00
         vertex -2.789010e+00 -9.498496e+00 5.000000e+00
      endloop
   endfacet
   facet normal 0.000000e+00 0.000000e+00 -1.000000e+00
      outer loop
         vertex -2.789010e+00 -9.498496e+00 5.000000e+00
         vertex -5.352071e+00 -8.327985e+00 5.000000e+00
         vertex 2.789010e+00 -9.498496e+00 5.000000e+00
      endloop
   endfacet
   facet normal 0.000000e+00 0.000000e+00 -1.000000e+00
      outer loop
         vertex -5.352071e+00 -8.327985e+00 5.000000e+00
         vertex -7.481539e+00 -6.482790e+00 5.000000e+00
         vertex 2.789010e+00 -9.498496e+00 5.000000e+00
      endloop
   endfacet
   facet normal 0.000000e+00 0.000000e+00 -1.000000e+00
      outer loop
         vertex -7.481539e+00 -6.482790e+00 5.000000e+00
         vertex -9.004897e+00 -4.112399e+00 5.000000e+00
         vertex 2.789010e+00 -9.498496e+00 5.000000e+00
      endloop
   endfacet
   facet normal 0.000000e+00 0.000000e+00 -1.000000e+00
      outer loop
         vertex -9.004897e+00 -4.112399e+00 5.000000e+00
         vertex -9.798733e+00 -1.408845e+00 5.000000e+00
         vertex 2.789010e+00 -9.498496e+00 5.000000e+00
      endloop
   endfacet
   facet normal 0.000000e+00 0.000000e+00 -1.000000e+00
      outer loop
         vertex -9.798733e+00 -1.408845e+00 5.000000e+00
         vertex -9.798733e+00 1.408845e+00 5.000000e+00
         vertex 2.789010e+00 -9.498496e+00 5.000000e+00
      endloop
   endfacet
   facet normal 0.000000e+00 -0.000000e+00 -1.000000e+00
      outer loop
         vertex -9.798733e+00 1.408845e+00 5.000000e+00
         vertex -9.004897e+00 4.112399e+00 5.000000e+00
         vertex 2.789010e+00 -9.498496e+00 5.000000e+00
      endloop
   endfacet
   facet normal 0.000000e+00 -0.000000e+00 -1.000000e+00
      outer loop
         vertex -9.004897e+00 4.112399e+00 5.000000e+00
         vertex -7.481539e+00 6.482790e+00 5.000000e+00
         vertex 2.789010e+00 -9.498496e+00 5.000000e+00
      endloop
   endfacet
   facet normal 0.000000e+00 -0.000000e+00 -1.000000e+00
      outer loop
         vertex -7.481539e+00 6.482790e+00 5.000000e+00
         vertex -5.352071e+00 8.327985e+00 5.000000e+00
         vertex -2.789010e+00 9.498496e+00 5.000000e+00
      endloop
   endfacet
   facet normal 0.000000e+00 -0.000000e+00 -1.000000e+00
      outer loop
         vertex -2.789010e+00 9.498496e+00 5.000000e+00
         vertex -5.002428e-15 9.899495e+00 5.000000e+00
         vertex 2.789010e+00 -9.498496e+00 5.000000e+00
      endloop
   endfacet
   facet normal -0.000000e+00 -0.000000e+00 -1.000000e+00
      outer loop
         vertex -5.002428e-15 9.899495e+00 5.000000e+00
         vertex 2.789010e+00 9.498496e+00 5.000000e+00
         vertex 2.789010e+00 -9.498496e+00 5.000000e+00
      endloop
   endfacet
   facet normal -0.000000e+00 0.000000e+00 -1.000000e+00
      outer loop
         vertex 2.789010e+00 9.498496e+00 5.000000e+00
         vertex 5.352071e+00 8.327985e+00 5.000000e+00
         vertex 2.789010e+00 -9.498496e+00 5.000000e+00
      endloop
   endfacet
   facet normal -0.000000e+00 0.000000e+00 -1.000000e+00
      outer loop
         vertex 5.352071e+00 8.327985e+00 5.000000e+00
         vertex 7.481539e+00 6.482790e+00 5.000000e+00
         vertex 2.789010e+00 -9.498496e+00 5.000000e+00
      endloop
   endfacet
   facet normal -0.000000e+00 0.000000e+00 -1.000000e+00
      outer loop
         vertex 7.481539e+00 6.482790e+00 5.000000e+00
         vertex 9.004897e+00 4.112399e+00 5.000000e+00
         vertex 2.789010e+00 -9.498496e+00 5.000000e+00
      endloop
   endfacet
   facet normal -0.000000e+00 0.000000e+00 -1.000000e+00
      outer loop
         vertex 9.004897e+00 4.112399e+00 5.000000e+00
         vertex 9.798733e+00 1.408845e+00 5.000000e+00
         vertex 2.789010e+00 -9.498496e+00 5.000000e+00
      endloop
   endfacet
   facet normal -0.000000e+00 0.000000e+00 -1.000000e+00
      outer loop
         vertex 9.798733e+00 1.408845e+00 5.000000e+00
         vertex 9.798733e+00 -1.408845e+00 5.000000e+00
         vertex 9.004897e+00 -4.112399e+00 5.000000e+00
      endloop
   endfacet
   facet normal -0.000000e+00 0.000000e+00 -1.000000e+00
      outer loop
         vertex 9.004897e+00 -4.112399e+00 5.000000e+00
         vertex 7.481539e+00 -6.482790e+00 5.000000e+00
         vertex 2.789010e+00 -9.498496e+00 5.000000e+00
      endloop
   endfacet
   facet normal -0.000000e+00 0.000000e+00 -1.000000e+00
      outer loop
         vertex 7.481539e+00 -6.482790e+00 5.000000e+00
         vertex 5.352071e+00 -8.327985e+00 5.000000e+00
         vertex 2.789010e+00 -9.498496e+00 5.000000e+00
      endloop
   endfacet
   facet normal 0.000000e+00 0.000000e+00 -1.000000e+00
      outer loop
         vertex 2.789010e+00 -9.498496e+00 5.000000e+00
         vertex -7.481539e+00 6.482790e+00 5.000000e+00
         vertex -2.789010e+00 9.498496e+00 5.000000e+00
      endloop
   endfacet
   facet normal 0.000000e+00 0.000000e+00 -1.000000e+00
      outer loop
         vertex 2.789010e+00 -9.498496e+00 5.000000e+00
         vertex 9.798733e+00 1.408845e+00 5.000000e+00
         vertex 9.004897e+00 -4.112399e+00 5.000000e+00
      endloop
   endfacet
   facet normal -0.000000e+00 0.000000e+00 1.000000e+00
      outer loop
         vertex 3.216243e+00 -4.559952e+00 1.000000e+01
         vertex -3.216243e+00 -4.559952e+00 1.000000e+01
         vertex -3.216243e+00 -1.099195e+01 1.000000e+01
      endloop
   endfacet
   facet normal 0.000000e+00 -0.000000e+00 1.000000e+00
      outer loop
         vertex -3.216243e+00 -1.099195e+01 1.000000e+01
         vertex 3.216243e+00 -1.099195e+01 1.000000e+01
         vertex 3.216243e+00 -4.559952e+00 1.000000e+01
      endloop
   endfacet
   facet normal 1.000000e+00 0.000000e+00 0.000000e+00
      outer loop
         vertex -3.216243e+00 -4.559952e+00 1.000000e+01
         vertex -3.216243e+00 -4.559952e+00 4.000000e+01
         vertex -3.216243e+00 -1.099195e+01 4.000000e+01
      endloop
   endfacet
   facet normal 1.000000e+00 0.000000e+00 0.000000e+00
      outer loop
         vertex -3.216243e+00 -1.099195e+01 4.000000e+01
         vertex -3.216243e+00 -1.099195e+01 1.000000e+01
         vertex -3.216243e+00 -4.559952e+00 1.000000e+01
      endloop
   endfacet
   facet normal -0.000000e+00 1.000000e+00 0.000000e+00
      outer loop
         vertex -3.216243e+00 -1.099195e+01 1.000000e+01
         vertex -3.216243e+00 -1.099195e+01 4.000000e+01
         vertex 3.216243e+00 -1.099195e+01 4.000000e+01
      endloop
   endfacet
   facet normal 0.000000e+00 1.000000e+00 -0.000000e+00
      outer loop
         vertex 3.216243e+00 -1.099195e+01 4.000000e+01
         vertex 3.216243e+00 -1.099195e+01 1.000000e+01
         vertex -3.216243e+00 -1.099195e+01 1.000000e+01
      endloop
   endfacet
   facet normal -1.000000e+00 0.000000e+00 0.000000e+00
      outer loop
         vertex 3.216243e+00 -1.099195e+01 1.000000e+01
         vertex 3.216243e+00 -1.099195e+01 4.000000e+01
         vertex 3.216243e+00 -4.559952e+00 4.000000e+01
      endloop
   endfacet
   facet normal -1.000000e+00 0.000000e+00 0.000000e+00
      outer loop
         vertex 3.216243e+00 -4.559952e+00 4.000000e+01
         vertex 3.216243e+00 -4.559952e+00 1.000000e+01
         vertex 3.216243e+00 -1.099195e+01 1.000000e+01
      endloop
   endfacet
   facet normal -0.000000e+00 -1.000000e+00 -0.000000e+00
      outer loop
         vertex 3.216243e+00 -4.559952e+00 1.000000e+01
         vertex 3.216243e+00 -4.559952e+00 4.000000e+01
         vertex -3.216243e+00 -4.559952e+00 4.000000e+01
      endloop
   endfacet
   facet normal 0.000000e+00 -1.000000e+00 0.000000e+00
      outer loop
         vertex -3.216243e+00 -4.559952e+00 4.000000e+01
         vertex -3.216243e+00 -4.559952e+00 1.000000e+01
         vertex 3.216243e+00 -4.559952e+00 1.000000e+01
      endloop
   endfacet
   facet normal 0.000000e+00 0.000000e+00 -1.000000e+00
      outer loop
         vertex 3.216243e+00 -4.559952e+00 4.000000e+01
         vertex 3.216243e+00 -1.099195e+01 4.000000e+01
         vertex -3.216243e+00 -1.099195e+01 4.000000e+01
      endloop
   endfacet
   facet normal 0.000000e+00 0.000000e+00 -1.000000e+00
      outer loop
         vertex -3.216243e+00 -1.099195e+01 4.000000e+01
         vertex -3.216243e+00 -4.559952e+00 4.000000e+01
         vertex 3.216243e+00 -4.559952e+00 4.000000e+01
      endloop
   endfacet
endsolid
