solid 
   facet normal -9.830777e-01 0.000000e+00 1.831891e-01
      outer loop
         vertex -5.120130e+00 -5.066519e+00 3.000000e+01
         vertex -5.120130e+00 4.933481e+00 3.000000e+01
         vertex -8.846978e+00 -8.830720e+00 1.000000e+01
      endloop
   endfacet
   facet normal -9.829903e-01 -7.020549e-04 1.836559e-01
      outer loop
         vertex -8.859583e+00 8.817916e+00 1.000000e+01
         vertex -8.846978e+00 -8.830720e+00 1.000000e+01
         vertex -5.120130e+00 4.933481e+00 3.000000e+01
      endloop
   endfacet
   facet normal 0.000000e+00 9.816563e-01 1.906590e-01
      outer loop
         vertex -5.120130e+00 4.933481e+00 3.000000e+01
         vertex 4.879870e+00 4.933481e+00 3.000000e+01
         vertex -8.859583e+00 8.817916e+00 1.000000e+01
      endloop
   endfacet
   facet normal -1.612318e-03 9.814472e-01 1.917260e-01
      outer loop
         vertex 8.830563e+00 8.846977e+00 1.000000e+01
         vertex -8.859583e+00 8.817916e+00 1.000000e+01
         vertex 4.879870e+00 4.933481e+00 3.000000e+01
      endloop
   endfacet
   facet normal 9.810430e-01 -0.000000e+00 1.937900e-01
      outer loop
         vertex 4.879870e+00 4.933481e+00 3.000000e+01
         vertex 4.879870e+00 -5.066519e+00 3.000000e+01
         vertex 8.830563e+00 8.846977e+00 1.000000e+01
      endloop
   endfacet
   facet normal 9.817927e-01 -5.854127e-03 1.898655e-01
      outer loop
         vertex 8.724435e+00 -8.951653e+00 1.000000e+01
         vertex 8.830563e+00 8.846977e+00 1.000000e+01
         vertex 4.879870e+00 -5.066519e+00 3.000000e+01
      endloop
   endfacet
   facet normal 0.000000e+00 -9.816499e-01 1.906920e-01
      outer loop
         vertex 4.879870e+00 -5.066519e+00 3.000000e+01
         vertex -5.120130e+00 -5.066519e+00 3.000000e+01
         vertex 8.724435e+00 -8.951653e+00 1.000000e+01
      endloop
   endfacet
   facet normal -6.761861e-03 -9.824933e-01 1.861751e-01
      outer loop
         vertex -8.846978e+00 -8.830720e+00 1.000000e+01
         vertex 8.724435e+00 -8.951653e+00 1.000000e+01
         vertex -5.120130e+00 -5.066519e+00 3.000000e+01
      endloop
   endfacet
   facet normal 0.000000e+00 9.825922e-01 -1.857755e-01
      outer loop
         vertex -2.620130e+00 -2.566519e+00 3.000000e+01
         vertex 2.379870e+00 -2.566519e+00 3.000000e+01
         vertex -6.348751e+00 -6.347854e+00 1.000000e+01
      endloop
   endfacet
   facet normal 6.758693e-03 9.820272e-01 -1.886184e-01
      outer loop
         vertex 6.239399e+00 -6.434491e+00 1.000000e+01
         vertex -6.348751e+00 -6.347854e+00 1.000000e+01
         vertex 2.379870e+00 -2.566519e+00 3.000000e+01
      endloop
   endfacet
   facet normal -9.818845e-01 -0.000000e+00 -1.894806e-01
      outer loop
         vertex 2.379870e+00 -2.566519e+00 3.000000e+01
         vertex 2.379870e+00 2.433481e+00 3.000000e+01
         vertex 6.239399e+00 -6.434491e+00 1.000000e+01
      endloop
   endfacet
   facet normal -9.813817e-01 5.851664e-03 -1.919782e-01
      outer loop
         vertex 6.315587e+00 6.342843e+00 1.000000e+01
         vertex 6.239399e+00 -6.434491e+00 1.000000e+01
         vertex 2.379870e+00 2.433481e+00 3.000000e+01
      endloop
   endfacet
   facet normal 0.000000e+00 -9.814267e-01 -1.918376e-01
      outer loop
         vertex 2.379870e+00 2.433481e+00 3.000000e+01
         vertex -2.620130e+00 2.433481e+00 3.000000e+01
         vertex 6.315587e+00 6.342843e+00 1.000000e+01
      endloop
   endfacet
   facet normal 1.612531e-03 -9.815608e-01 -1.911434e-01
      outer loop
         vertex -6.357800e+00 6.322022e+00 1.000000e+01
         vertex 6.315587e+00 6.342843e+00 1.000000e+01
         vertex -2.620130e+00 2.433481e+00 3.000000e+01
      endloop
   endfacet
   facet normal 9.829818e-01 0.000000e+00 -1.837031e-01
      outer loop
         vertex -2.620130e+00 2.433481e+00 3.000000e+01
         vertex -2.620130e+00 -2.566519e+00 3.000000e+01
         vertex -6.357800e+00 6.322022e+00 1.000000e+01
      endloop
   endfacet
   facet normal 9.830378e-01 7.020944e-04 -1.834015e-01
      outer loop
         vertex -6.348751e+00 -6.347854e+00 1.000000e+01
         vertex -6.357800e+00 6.322022e+00 1.000000e+01
         vertex -2.620130e+00 -2.566519e+00 3.000000e+01
      endloop
   endfacet
   facet normal 0.000000e+00 0.000000e+00 -1.000000e+00
      outer loop
         vertex 2.379870e+00 2.433481e+00 3.000000e+01
         vertex 2.379870e+00 -2.566519e+00 3.000000e+01
         vertex -2.620130e+00 -2.566519e+00 3.000000e+01
      endloop
   endfacet
   facet normal 0.000000e+00 0.000000e+00 -1.000000e+00
      outer loop
         vertex -2.620130e+00 -2.566519e+00 3.000000e+01
         vertex -2.620130e+00 2.433481e+00 3.000000e+01
         vertex 2.379870e+00 2.433481e+00 3.000000e+01
      endloop
   endfacet
   facet normal -8.901091e-01 0.000000e+00 4.557475e-01
      outer loop
         vertex -2.220446e-16 2.220446e-16 4.000000e+01
         vertex -5.120130e+00 4.933481e+00 3.000000e+01
         vertex -5.120130e+00 -5.066519e+00 3.000000e+01
      endloop
   endfacet
   facet normal 0.000000e+00 8.968006e-01 4.424349e-01
      outer loop
         vertex -2.220446e-16 2.220446e-16 4.000000e+01
         vertex 4.879870e+00 4.933481e+00 3.000000e+01
         vertex -5.120130e+00 4.933481e+00 3.000000e+01
      endloop
   endfacet
   facet normal 8.987039e-01 -0.000000e+00 4.385558e-01
      outer loop
         vertex -2.220446e-16 2.220446e-16 4.000000e+01
         vertex 4.879870e+00 -5.066519e+00 3.000000e+01
         vertex 4.879870e+00 4.933481e+00 3.000000e+01
      endloop
   endfacet
   facet normal 0.000000e+00 -8.920411e-01 4.519543e-01
      outer loop
         vertex -2.220446e-16 2.220446e-16 4.000000e+01
         vertex -5.120130e+00 -5.066519e+00 3.000000e+01
         vertex 4.879870e+00 -5.066519e+00 3.000000e+01
      endloop
   endfacet
   facet normal 0.000000e+00 0.000000e+00 1.000000e+00
      outer loop
         vertex -1.359319e+01 3.350419e+00 1.000000e+01
         vertex -1.400000e+01 1.714506e-15 1.000000e+01
         vertex -8.859583e+00 8.817916e+00 1.000000e+01
      endloop
   endfacet
   facet normal -0.000000e+00 -0.000000e+00 1.000000e+00
      outer loop
         vertex -1.400000e+01 1.714506e-15 1.000000e+01
         vertex -1.359319e+01 -3.350419e+00 1.000000e+01
         vertex -8.846978e+00 -8.830720e+00 1.000000e+01
      endloop
   endfacet
   facet normal -0.000000e+00 -0.000000e+00 1.000000e+00
      outer loop
         vertex -1.359319e+01 -3.350419e+00 1.000000e+01
         vertex -1.239638e+01 -6.506124e+00 1.000000e+01
         vertex -8.846978e+00 -8.830720e+00 1.000000e+01
      endloop
   endfacet
   facet normal 0.000000e+00 -0.000000e+00 1.000000e+00
      outer loop
         vertex -1.239638e+01 -6.506124e+00 1.000000e+01
         vertex -1.047915e+01 -9.283717e+00 1.000000e+01
         vertex -8.846978e+00 -8.830720e+00 1.000000e+01
      endloop
   endfacet
   facet normal 0.000000e+00 0.000000e+00 1.000000e+00
      outer loop
         vertex -1.047915e+01 -9.283717e+00 1.000000e+01
         vertex -7.952907e+00 -1.152177e+01 1.000000e+01
         vertex -8.846978e+00 -8.830720e+00 1.000000e+01
      endloop
   endfacet
   facet normal 0.000000e+00 0.000000e+00 1.000000e+00
      outer loop
         vertex -7.952907e+00 -1.152177e+01 1.000000e+01
         vertex -4.964468e+00 -1.309023e+01 1.000000e+01
         vertex -8.846978e+00 -8.830720e+00 1.000000e+01
      endloop
   endfacet
   facet normal 0.000000e+00 0.000000e+00 1.000000e+00
      outer loop
         vertex -4.964468e+00 -1.309023e+01 1.000000e+01
         vertex -1.687513e+00 -1.389792e+01 1.000000e+01
         vertex -8.846978e+00 -8.830720e+00 1.000000e+01
      endloop
   endfacet
   facet normal 0.000000e+00 -0.000000e+00 1.000000e+00
      outer loop
         vertex -1.687513e+00 -1.389792e+01 1.000000e+01
         vertex 1.687513e+00 -1.389792e+01 1.000000e+01
         vertex 8.724435e+00 -8.951653e+00 1.000000e+01
      endloop
   endfacet
   facet normal 0.000000e+00 -0.000000e+00 1.000000e+00
      outer loop
         vertex 1.687513e+00 -1.389792e+01 1.000000e+01
         vertex 4.964468e+00 -1.309023e+01 1.000000e+01
         vertex 8.724435e+00 -8.951653e+00 1.000000e+01
      endloop
   endfacet
   facet normal 0.000000e+00 -0.000000e+00 1.000000e+00
      outer loop
         vertex 4.964468e+00 -1.309023e+01 1.000000e+01
         vertex 7.952907e+00 -1.152177e+01 1.000000e+01
         vertex 8.724435e+00 -8.951653e+00 1.000000e+01
      endloop
   endfacet
   facet normal 0.000000e+00 0.000000e+00 1.000000e+00
      outer loop
         vertex 7.952907e+00 -1.152177e+01 1.000000e+01
         vertex 1.047915e+01 -9.283717e+00 1.000000e+01
         vertex 8.724435e+00 -8.951653e+00 1.000000e+01
      endloop
   endfacet
   facet normal 0.000000e+00 0.000000e+00 1.000000e+00
      outer loop
         vertex 1.047915e+01 -9.283717e+00 1.000000e+01
         vertex 1.239638e+01 -6.506124e+00 1.000000e+01
         vertex 8.724435e+00 -8.951653e+00 1.000000e+01
      endloop
   endfacet
   facet normal 0.000000e+00 0.000000e+00 1.000000e+00
      outer loop
         vertex 1.239638e+01 -6.506124e+00 1.000000e+01
         vertex 1.359319e+01 -3.350419e+00 1.000000e+01
         vertex 8.724435e+00 -8.951653e+00 1.000000e+01
      endloop
   endfacet
   facet normal 0.000000e+00 0.000000e+00 1.000000e+00
      outer loop
         vertex 1.359319e+01 -3.350419e+00 1.000000e+01
         vertex 1.400000e+01 -1.586351e-14 1.000000e+01
         vertex 8.724435e+00 -8.951653e+00 1.000000e+01
      endloop
   endfacet
   facet normal 0.000000e+00 0.000000e+00 1.000000e+00
      outer loop
         vertex 1.400000e+01 -1.586351e-14 1.000000e+01
         vertex 1.359319e+01 3.350419e+00 1.000000e+01
         vertex 8.830563e+00 8.846977e+00 1.000000e+01
      endloop
   endfacet
   facet normal 0.000000e+00 0.000000e+00 1.000000e+00
      outer loop
         vertex 1.359319e+01 3.350419e+00 1.000000e+01
         vertex 1.239638e+01 6.506124e+00 1.000000e+01
         vertex 8.830563e+00 8.846977e+00 1.000000e+01
      endloop
   endfacet
   facet normal 0.000000e+00 0.000000e+00 1.000000e+00
      outer loop
         vertex 1.239638e+01 6.506124e+00 1.000000e+01
         vertex 1.047915e+01 9.283717e+00 1.000000e+01
         vertex 8.830563e+00 8.846977e+00 1.000000e+01
      endloop
   endfacet
   facet normal 0.000000e+00 0.000000e+00 1.000000e+00
      outer loop
         vertex 1.047915e+01 9.283717e+00 1.000000e+01
         vertex 7.952907e+00 1.152177e+01 1.000000e+01
         vertex 8.830563e+00 8.846977e+00 1.000000e+01
      endloop
   endfacet
   facet normal 0.000000e+00 0.000000e+00 1.000000e+00
      outer loop
         vertex 7.952907e+00 1.152177e+01 1.000000e+01
         vertex 4.964468e+00 1.309023e+01 1.000000e+01
         vertex 8.830563e+00 8.846977e+00 1.000000e+01
      endloop
   endfacet
   facet normal 0.000000e+00 0.000000e+00 1.000000e+00
      outer loop
         vertex 4.964468e+00 1.309023e+01 1.000000e+01
         vertex 1.687513e+00 1.389792e+01 1.000000e+01
         vertex 8.830563e+00 8.846977e+00 1.000000e+01
      endloop
   endfacet
   facet normal -0.000000e+00 0.000000e+00 1.000000e+00
      outer loop
         vertex 1.687513e+00 1.389792e+01 1.000000e+01
         vertex -1.687513e+00 1.389792e+01 1.000000e+01
         vertex 8.830563e+00 8.846977e+00 1.000000e+01
      endloop
   endfacet
   facet normal -0.000000e+00 0.000000e+00 1.000000e+00
      outer loop
         vertex -1.687513e+00 1.389792e+01 1.000000e+01
         vertex -4.964468e+00 1.309023e+01 1.000000e+01
         vertex -8.859583e+00 8.817916e+00 1.000000e+01
      endloop
   endfacet
   facet normal -0.000000e+00 0.000000e+00 1.000000e+00
      outer loop
         vertex -4.964468e+00 1.309023e+01 1.000000e+01
         vertex -7.952907e+00 1.152177e+01 1.000000e+01
         vertex -8.859583e+00 8.817916e+00 1.000000e+01
      endloop
   endfacet
   facet normal -0.000000e+00 0.000000e+00 1.000000e+00
      outer loop
         vertex -7.952907e+00 1.152177e+01 1.000000e+01
         vertex -1.047915e+01 9.283717e+00 1.000000e+01
         vertex -8.859583e+00 8.817916e+00 1.000000e+01
      endloop
   endfacet
   facet normal 0.000000e+00 0.000000e+00 1.000000e+00
      outer loop
         vertex -1.047915e+01 9.283717e+00 1.000000e+01
         vertex -1.239638e+01 6.506124e+00 1.000000e+01
         vertex -8.859583e+00 8.817916e+00 1.000000e+01
      endloop
   endfacet
   facet normal 0.000000e+00 0.000000e+00 1.000000e+00
      outer loop
         vertex -1.239638e+01 6.506124e+00 1.000000e+01
         vertex -1.359319e+01 3.350419e+00 1.000000e+01
         vertex -8.859583e+00 8.817916e+00 1.000000e+01
      endloop
   endfacet
   facet normal 0.000000e+00 0.000000e+00 1.000000e+00
      outer loop
         vertex 8.724435e+00 -8.951653e+00 1.000000e+01
         vertex -8.846978e+00 -8.830720e+00 1.000000e+01
         vertex -1.687513e+00 -1.389792e+01 1.000000e+01
      endloop
   endfacet
   facet normal 0.000000e+00 0.000000e+00 1.000000e+00
      outer loop
         vertex -8.846978e+00 -8.830720e+00 1.000000e+01
         vertex -8.859583e+00 8.817916e+00 1.000000e+01
         vertex -1.400000e+01 1.714506e-15 1.000000e+01
      endloop
   endfacet
   facet normal 0.000000e+00 0.000000e+00 1.000000e+00
      outer loop
         vertex -8.859583e+00 8.817916e+00 1.000000e+01
         vertex 8.830563e+00 8.846977e+00 1.000000e+01
         vertex -1.687513e+00 1.389792e+01 1.000000e+01
      endloop
   endfacet
   facet normal 0.000000e+00 0.000000e+00 1.000000e+00
      outer loop
         vertex 8.830563e+00 8.846977e+00 1.000000e+01
         vertex 8.724435e+00 -8.951653e+00 1.000000e+01
         vertex 1.400000e+01 -1.586351e-14 1.000000e+01
      endloop
   endfacet
   facet normal -0.000000e+00 -0.000000e+00 1.000000e+00
      outer loop
         vertex -6.357800e+00 6.322022e+00 1.000000e+01
         vertex -6.348751e+00 -6.347854e+00 1.000000e+01
         vertex 6.239399e+00 -6.434491e+00 1.000000e+01
      endloop
   endfacet
   facet normal 0.000000e+00 0.000000e+00 1.000000e+00
      outer loop
         vertex 6.239399e+00 -6.434491e+00 1.000000e+01
         vertex 6.315587e+00 6.342843e+00 1.000000e+01
         vertex -6.357800e+00 6.322022e+00 1.000000e+01
      endloop
   endfacet
   facet normal -9.927089e-01 -1.205367e-01 0.000000e+00
      outer loop
         vertex -1.400000e+01 1.714506e-15 0.000000e+00
         vertex -1.359319e+01 -3.350419e+00 0.000000e+00
         vertex -1.359319e+01 -3.350419e+00 1.000000e+01
      endloop
   endfacet
   facet normal -9.927089e-01 -1.205367e-01 0.000000e+00
      outer loop
         vertex -1.400000e+01 1.714506e-15 0.000000e+00
         vertex -1.359319e+01 -3.350419e+00 1.000000e+01
         vertex -1.400000e+01 1.714506e-15 1.000000e+01
      endloop
   endfacet
   facet normal -9.350162e-01 -3.546049e-01 0.000000e+00
      outer loop
         vertex -1.359319e+01 -3.350419e+00 0.000000e+00
         vertex -1.239638e+01 -6.506124e+00 0.000000e+00
         vertex -1.239638e+01 -6.506124e+00 1.000000e+01
      endloop
   endfacet
   facet normal -9.350162e-01 -3.546049e-01 0.000000e+00
      outer loop
         vertex -1.359319e+01 -3.350419e+00 0.000000e+00
         vertex -1.239638e+01 -6.506124e+00 1.000000e+01
         vertex -1.359319e+01 -3.350419e+00 1.000000e+01
      endloop
   endfacet
   facet normal -8.229839e-01 -5.680647e-01 0.000000e+00
      outer loop
         vertex -1.239638e+01 -6.506124e+00 0.000000e+00
         vertex -1.047915e+01 -9.283717e+00 0.000000e+00
         vertex -1.047915e+01 -9.283717e+00 1.000000e+01
      endloop
   endfacet
   facet normal -8.229839e-01 -5.680647e-01 0.000000e+00
      outer loop
         vertex -1.239638e+01 -6.506124e+00 0.000000e+00
         vertex -1.047915e+01 -9.283717e+00 1.000000e+01
         vertex -1.239638e+01 -6.506124e+00 1.000000e+01
      endloop
   endfacet
   facet normal -6.631227e-01 -7.485107e-01 0.000000e+00
      outer loop
         vertex -1.047915e+01 -9.283717e+00 0.000000e+00
         vertex -7.952907e+00 -1.152177e+01 0.000000e+00
         vertex -7.952907e+00 -1.152177e+01 1.000000e+01
      endloop
   endfacet
   facet normal -6.631227e-01 -7.485107e-01 0.000000e+00
      outer loop
         vertex -1.047915e+01 -9.283717e+00 0.000000e+00
         vertex -7.952907e+00 -1.152177e+01 1.000000e+01
         vertex -1.047915e+01 -9.283717e+00 1.000000e+01
      endloop
   endfacet
   facet normal -4.647231e-01 -8.854561e-01 0.000000e+00
      outer loop
         vertex -7.952907e+00 -1.152177e+01 0.000000e+00
         vertex -4.964468e+00 -1.309023e+01 0.000000e+00
         vertex -4.964468e+00 -1.309023e+01 1.000000e+01
      endloop
   endfacet
   facet normal -4.647231e-01 -8.854561e-01 0.000000e+00
      outer loop
         vertex -7.952907e+00 -1.152177e+01 0.000000e+00
         vertex -4.964468e+00 -1.309023e+01 1.000000e+01
         vertex -7.952907e+00 -1.152177e+01 1.000000e+01
      endloop
   endfacet
   facet normal -2.393158e-01 -9.709418e-01 0.000000e+00
      outer loop
         vertex -4.964468e+00 -1.309023e+01 0.000000e+00
         vertex -1.687513e+00 -1.389792e+01 0.000000e+00
         vertex -1.687513e+00 -1.389792e+01 1.000000e+01
      endloop
   endfacet
   facet normal -2.393158e-01 -9.709418e-01 0.000000e+00
      outer loop
         vertex -4.964468e+00 -1.309023e+01 0.000000e+00
         vertex -1.687513e+00 -1.389792e+01 1.000000e+01
         vertex -4.964468e+00 -1.309023e+01 1.000000e+01
      endloop
   endfacet
   facet normal 0.000000e+00 -1.000000e+00 0.000000e+00
      outer loop
         vertex -1.687513e+00 -1.389792e+01 0.000000e+00
         vertex 1.687513e+00 -1.389792e+01 0.000000e+00
         vertex 1.687513e+00 -1.389792e+01 1.000000e+01
      endloop
   endfacet
   facet normal -0.000000e+00 -1.000000e+00 0.000000e+00
      outer loop
         vertex -1.687513e+00 -1.389792e+01 0.000000e+00
         vertex 1.687513e+00 -1.389792e+01 1.000000e+01
         vertex -1.687513e+00 -1.389792e+01 1.000000e+01
      endloop
   endfacet
   facet normal 2.393158e-01 -9.709418e-01 0.000000e+00
      outer loop
         vertex 1.687513e+00 -1.389792e+01 0.000000e+00
         vertex 4.964468e+00 -1.309023e+01 0.000000e+00
         vertex 4.964468e+00 -1.309023e+01 1.000000e+01
      endloop
   endfacet
   facet normal 2.393158e-01 -9.709418e-01 0.000000e+00
      outer loop
         vertex 1.687513e+00 -1.389792e+01 0.000000e+00
         vertex 4.964468e+00 -1.309023e+01 1.000000e+01
         vertex 1.687513e+00 -1.389792e+01 1.000000e+01
      endloop
   endfacet
   facet normal 4.647231e-01 -8.854561e-01 0.000000e+00
      outer loop
         vertex 4.964468e+00 -1.309023e+01 0.000000e+00
         vertex 7.952907e+00 -1.152177e+01 0.000000e+00
         vertex 7.952907e+00 -1.152177e+01 1.000000e+01
      endloop
   endfacet
   facet normal 4.647231e-01 -8.854561e-01 0.000000e+00
      outer loop
         vertex 4.964468e+00 -1.309023e+01 0.000000e+00
         vertex 7.952907e+00 -1.152177e+01 1.000000e+01
         vertex 4.964468e+00 -1.309023e+01 1.000000e+01
      endloop
   endfacet
   facet normal 6.631227e-01 -7.485107e-01 0.000000e+00
      outer loop
         vertex 7.952907e+00 -1.152177e+01 0.000000e+00
         vertex 1.047915e+01 -9.283717e+00 0.000000e+00
         vertex 1.047915e+01 -9.283717e+00 1.000000e+01
      endloop
   endfacet
   facet normal 6.631227e-01 -7.485107e-01 0.000000e+00
      outer loop
         vertex 7.952907e+00 -1.152177e+01 0.000000e+00
         vertex 1.047915e+01 -9.283717e+00 1.000000e+01
         vertex 7.952907e+00 -1.152177e+01 1.000000e+01
      endloop
   endfacet
   facet normal 8.229839e-01 -5.680647e-01 0.000000e+00
      outer loop
         vertex 1.047915e+01 -9.283717e+00 0.000000e+00
         vertex 1.239638e+01 -6.506124e+00 0.000000e+00
         vertex 1.239638e+01 -6.506124e+00 1.000000e+01
      endloop
   endfacet
   facet normal 8.229839e-01 -5.680647e-01 0.000000e+00
      outer loop
         vertex 1.047915e+01 -9.283717e+00 0.000000e+00
         vertex 1.239638e+01 -6.506124e+00 1.000000e+01
         vertex 1.047915e+01 -9.283717e+00 1.000000e+01
      endloop
   endfacet
   facet normal 9.350162e-01 -3.546049e-01 0.000000e+00
      outer loop
         vertex 1.239638e+01 -6.506124e+00 0.000000e+00
         vertex 1.359319e+01 -3.350419e+00 0.000000e+00
         vertex 1.359319e+01 -3.350419e+00 1.000000e+01
      endloop
   endfacet
   facet normal 9.350162e-01 -3.546049e-01 0.000000e+00
      outer loop
         vertex 1.239638e+01 -6.506124e+00 0.000000e+00
         vertex 1.359319e+01 -3.350419e+00 1.000000e+01
         vertex 1.239638e+01 -6.506124e+00 1.000000e+01
      endloop
   endfacet
   facet normal 9.927089e-01 -1.205367e-01 0.000000e+00
      outer loop
         vertex 1.359319e+01 -3.350419e+00 0.000000e+00
         vertex 1.400000e+01 -1.586351e-14 0.000000e+00
         vertex 1.400000e+01 -1.586351e-14 1.000000e+01
      endloop
   endfacet
   facet normal 9.927089e-01 -1.205367e-01 0.000000e+00
      outer loop
         vertex 1.359319e+01 -3.350419e+00 0.000000e+00
         vertex 1.400000e+01 -1.586351e-14 1.000000e+01
         vertex 1.359319e+01 -3.350419e+00 1.000000e+01
      endloop
   endfacet
   facet normal 9.927089e-01 1.205367e-01 -0.000000e+00
      outer loop
         vertex 1.400000e+01 -1.586351e-14 0.000000e+00
         vertex 1.359319e+01 3.350419e+00 0.000000e+00
         vertex 1.359319e+01 3.350419e+00 1.000000e+01
      endloop
   endfacet
   facet normal 9.927089e-01 1.205367e-01 0.000000e+00
      outer loop
         vertex 1.400000e+01 -1.586351e-14 0.000000e+00
         vertex 1.359319e+01 3.350419e+00 1.000000e+01
         vertex 1.400000e+01 -1.586351e-14 1.000000e+01
      endloop
   endfacet
   facet normal 9.350162e-01 3.546049e-01 -0.000000e+00
      outer loop
         vertex 1.359319e+01 3.350419e+00 0.000000e+00
         vertex 1.239638e+01 6.506124e+00 0.000000e+00
         vertex 1.239638e+01 6.506124e+00 1.000000e+01
      endloop
   endfacet
   facet normal 9.350162e-01 3.546049e-01 0.000000e+00
      outer loop
         vertex 1.359319e+01 3.350419e+00 0.000000e+00
         vertex 1.239638e+01 6.506124e+00 1.000000e+01
         vertex 1.359319e+01 3.350419e+00 1.000000e+01
      endloop
   endfacet
   facet normal 8.229839e-01 5.680647e-01 -0.000000e+00
      outer loop
         vertex 1.239638e+01 6.506124e+00 0.000000e+00
         vertex 1.047915e+01 9.283717e+00 0.000000e+00
         vertex 1.047915e+01 9.283717e+00 1.000000e+01
      endloop
   endfacet
   facet normal 8.229839e-01 5.680647e-01 0.000000e+00
      outer loop
         vertex 1.239638e+01 6.506124e+00 0.000000e+00
         vertex 1.047915e+01 9.283717e+00 1.000000e+01
         vertex 1.239638e+01 6.506124e+00 1.000000e+01
      endloop
   endfacet
   facet normal 6.631227e-01 7.485107e-01 -0.000000e+00
      outer loop
         vertex 1.047915e+01 9.283717e+00 0.000000e+00
         vertex 7.952907e+00 1.152177e+01 0.000000e+00
         vertex 7.952907e+00 1.152177e+01 1.000000e+01
      endloop
   endfacet
   facet normal 6.631227e-01 7.485107e-01 0.000000e+00
      outer loop
         vertex 1.047915e+01 9.283717e+00 0.000000e+00
         vertex 7.952907e+00 1.152177e+01 1.000000e+01
         vertex 1.047915e+01 9.283717e+00 1.000000e+01
      endloop
   endfacet
   facet normal 4.647231e-01 8.854561e-01 -0.000000e+00
      outer loop
         vertex 7.952907e+00 1.152177e+01 0.000000e+00
         vertex 4.964468e+00 1.309023e+01 0.000000e+00
         vertex 4.964468e+00 1.309023e+01 1.000000e+01
      endloop
   endfacet
   facet normal 4.647231e-01 8.854561e-01 0.000000e+00
      outer loop
         vertex 7.952907e+00 1.152177e+01 0.000000e+00
         vertex 4.964468e+00 1.309023e+01 1.000000e+01
         vertex 7.952907e+00 1.152177e+01 1.000000e+01
      endloop
   endfacet
   facet normal 2.393158e-01 9.709418e-01 -0.000000e+00
      outer loop
         vertex 4.964468e+00 1.309023e+01 0.000000e+00
         vertex 1.687513e+00 1.389792e+01 0.000000e+00
         vertex 1.687513e+00 1.389792e+01 1.000000e+01
      endloop
   endfacet
   facet normal 2.393158e-01 9.709418e-01 0.000000e+00
      outer loop
         vertex 4.964468e+00 1.309023e+01 0.000000e+00
         vertex 1.687513e+00 1.389792e+01 1.000000e+01
         vertex 4.964468e+00 1.309023e+01 1.000000e+01
      endloop
   endfacet
   facet normal 0.000000e+00 1.000000e+00 0.000000e+00
      outer loop
         vertex 1.687513e+00 1.389792e+01 0.000000e+00
         vertex -1.687513e+00 1.389792e+01 0.000000e+00
         vertex -1.687513e+00 1.389792e+01 1.000000e+01
      endloop
   endfacet
   facet normal -0.000000e+00 1.000000e+00 0.000000e+00
      outer loop
         vertex 1.687513e+00 1.389792e+01 0.000000e+00
         vertex -1.687513e+00 1.389792e+01 1.000000e+01
         vertex 1.687513e+00 1.389792e+01 1.000000e+01
      endloop
   endfacet
   facet normal -2.393158e-01 9.709418e-01 0.000000e+00
      outer loop
         vertex -1.687513e+00 1.389792e+01 0.000000e+00
         vertex -4.964468e+00 1.309023e+01 0.000000e+00
         vertex -4.964468e+00 1.309023e+01 1.000000e+01
      endloop
   endfacet
   facet normal -2.393158e-01 9.709418e-01 0.000000e+00
      outer loop
         vertex -1.687513e+00 1.389792e+01 0.000000e+00
         vertex -4.964468e+00 1.309023e+01 1.000000e+01
         vertex -1.687513e+00 1.389792e+01 1.000000e+01
      endloop
   endfacet
   facet normal -4.647231e-01 8.854561e-01 0.000000e+00
      outer loop
         vertex -4.964468e+00 1.309023e+01 0.000000e+00
         vertex -7.952907e+00 1.152177e+01 0.000000e+00
         vertex -7.952907e+00 1.152177e+01 1.000000e+01
      endloop
   endfacet
   facet normal -4.647231e-01 8.854561e-01 0.000000e+00
      outer loop
         vertex -4.964468e+00 1.309023e+01 0.000000e+00
         vertex -7.952907e+00 1.152177e+01 1.000000e+01
         vertex -4.964468e+00 1.309023e+01 1.000000e+01
      endloop
   endfacet
   facet normal -6.631227e-01 7.485107e-01 0.000000e+00
      outer loop
         vertex -7.952907e+00 1.152177e+01 0.000000e+00
         vertex -1.047915e+01 9.283717e+00 0.000000e+00
         vertex -1.047915e+01 9.283717e+00 1.000000e+01
      endloop
   endfacet
   facet normal -6.631227e-01 7.485107e-01 0.000000e+00
      outer loop
         vertex -7.952907e+00 1.152177e+01 0.000000e+00
         vertex -1.047915e+01 9.283717e+00 1.000000e+01
         vertex -7.952907e+00 1.152177e+01 1.000000e+01
      endloop
   endfacet
   facet normal -8.229839e-01 5.680647e-01 0.000000e+00
      outer loop
         vertex -1.047915e+01 9.283717e+00 0.000000e+00
         vertex -1.239638e+01 6.506124e+00 0.000000e+00
         vertex -1.239638e+01 6.506124e+00 1.000000e+01
      endloop
   endfacet
   facet normal -8.229839e-01 5.680647e-01 0.000000e+00
      outer loop
         vertex -1.047915e+01 9.283717e+00 0.000000e+00
         vertex -1.239638e+01 6.506124e+00 1.000000e+01
         vertex -1.047915e+01 9.283717e+00 1.000000e+01
      endloop
   endfacet
   facet normal -9.350162e-01 3.546049e-01 0.000000e+00
      outer loop
         vertex -1.239638e+01 6.506124e+00 0.000000e+00
         vertex -1.359319e+01 3.350419e+00 0.000000e+00
         vertex -1.359319e+01 3.350419e+00 1.000000e+01
      endloop
   endfacet
   facet normal -9.350162e-01 3.546049e-01 0.000000e+00
      outer loop
         vertex -1.239638e+01 6.506124e+00 0.000000e+00
         vertex -1.359319e+01 3.350419e+00 1.000000e+01
         vertex -1.239638e+01 6.506124e+00 1.000000e+01
      endloop
   endfacet
   facet normal -9.927089e-01 1.205367e-01 0.000000e+00
      outer loop
         vertex -1.359319e+01 3.350419e+00 0.000000e+00
         vertex -1.400000e+01 5.143517e-15 0.000000e+00
         vertex -1.400000e+01 5.143517e-15 1.000000e+01
      endloop
   endfacet
   facet normal -9.927089e-01 1.205367e-01 0.000000e+00
      outer loop
         vertex -1.359319e+01 3.350419e+00 0.000000e+00
         vertex -1.400000e+01 5.143517e-15 1.000000e+01
         vertex -1.359319e+01 3.350419e+00 1.000000e+01
      endloop
   endfacet
   facet normal 0.000000e+00 0.000000e+00 -1.000000e+00
      outer loop
         vertex -9.798727e+00 -1.408412e+00 0.000000e+00
         vertex -1.359319e+01 -3.350419e+00 0.000000e+00
         vertex -1.400000e+01 1.714506e-15 0.000000e+00
      endloop
   endfacet
   facet normal 0.000000e+00 0.000000e+00 -1.000000e+00
      outer loop
         vertex -9.004851e+00 -4.112103e+00 0.000000e+00
         vertex -1.239638e+01 -6.506124e+00 0.000000e+00
         vertex -1.359319e+01 -3.350419e+00 0.000000e+00
      endloop
   endfacet
   facet normal 0.000000e+00 0.000000e+00 -1.000000e+00
      outer loop
         vertex -7.481416e+00 -6.482616e+00 0.000000e+00
         vertex -1.047915e+01 -9.283717e+00 0.000000e+00
         vertex -1.239638e+01 -6.506124e+00 0.000000e+00
      endloop
   endfacet
   facet normal 0.000000e+00 0.000000e+00 -1.000000e+00
      outer loop
         vertex -7.481416e+00 -6.482616e+00 0.000000e+00
         vertex -7.952907e+00 -1.152177e+01 0.000000e+00
         vertex -1.047915e+01 -9.283717e+00 0.000000e+00
      endloop
   endfacet
   facet normal 0.000000e+00 0.000000e+00 -1.000000e+00
      outer loop
         vertex -5.351839e+00 -8.327905e+00 0.000000e+00
         vertex -4.964468e+00 -1.309023e+01 0.000000e+00
         vertex -7.952907e+00 -1.152177e+01 0.000000e+00
      endloop
   endfacet
   facet normal 0.000000e+00 0.000000e+00 -1.000000e+00
      outer loop
         vertex -2.788647e+00 -9.498475e+00 0.000000e+00
         vertex -1.687513e+00 -1.389792e+01 0.000000e+00
         vertex -4.964468e+00 -1.309023e+01 0.000000e+00
      endloop
   endfacet
   facet normal 0.000000e+00 0.000000e+00 -1.000000e+00
      outer loop
         vertex 5.050634e-04 -9.899495e+00 0.000000e+00
         vertex 1.687513e+00 -1.389792e+01 0.000000e+00
         vertex -1.687513e+00 -1.389792e+01 0.000000e+00
      endloop
   endfacet
   facet normal -0.000000e+00 0.000000e+00 -1.000000e+00
      outer loop
         vertex 2.789657e+00 -9.498475e+00 0.000000e+00
         vertex 4.964468e+00 -1.309023e+01 0.000000e+00
         vertex 1.687513e+00 -1.389792e+01 0.000000e+00
      endloop
   endfacet
   facet normal -0.000000e+00 0.000000e+00 -1.000000e+00
      outer loop
         vertex 5.352849e+00 -8.327905e+00 0.000000e+00
         vertex 7.952907e+00 -1.152177e+01 0.000000e+00
         vertex 4.964468e+00 -1.309023e+01 0.000000e+00
      endloop
   endfacet
   facet normal -0.000000e+00 0.000000e+00 -1.000000e+00
      outer loop
         vertex 7.482426e+00 -6.482616e+00 0.000000e+00
         vertex 1.047915e+01 -9.283717e+00 0.000000e+00
         vertex 7.952907e+00 -1.152177e+01 0.000000e+00
      endloop
   endfacet
   facet normal -0.000000e+00 0.000000e+00 -1.000000e+00
      outer loop
         vertex 7.482426e+00 -6.482616e+00 0.000000e+00
         vertex 1.239638e+01 -6.506124e+00 0.000000e+00
         vertex 1.047915e+01 -9.283717e+00 0.000000e+00
      endloop
   endfacet
   facet normal 0.000000e+00 0.000000e+00 -1.000000e+00
      outer loop
         vertex 9.005862e+00 -4.112103e+00 0.000000e+00
         vertex 1.359319e+01 -3.350419e+00 0.000000e+00
         vertex 1.239638e+01 -6.506124e+00 0.000000e+00
      endloop
   endfacet
   facet normal 0.000000e+00 0.000000e+00 -1.000000e+00
      outer loop
         vertex 9.799737e+00 -1.408412e+00 0.000000e+00
         vertex 1.400000e+01 -1.586351e-14 0.000000e+00
         vertex 1.359319e+01 -3.350419e+00 0.000000e+00
      endloop
   endfacet
   facet normal 0.000000e+00 -0.000000e+00 -1.000000e+00
      outer loop
         vertex 9.799737e+00 1.409422e+00 0.000000e+00
         vertex 1.359319e+01 3.350419e+00 0.000000e+00
         vertex 1.400000e+01 -1.586351e-14 0.000000e+00
      endloop
   endfacet
   facet normal 0.000000e+00 -0.000000e+00 -1.000000e+00
      outer loop
         vertex 9.005862e+00 4.113114e+00 0.000000e+00
         vertex 1.239638e+01 6.506124e+00 0.000000e+00
         vertex 1.359319e+01 3.350419e+00 0.000000e+00
      endloop
   endfacet
   facet normal 0.000000e+00 -0.000000e+00 -1.000000e+00
      outer loop
         vertex 7.482426e+00 6.483626e+00 0.000000e+00
         vertex 1.047915e+01 9.283717e+00 0.000000e+00
         vertex 1.239638e+01 6.506124e+00 0.000000e+00
      endloop
   endfacet
   facet normal 0.000000e+00 -0.000000e+00 -1.000000e+00
      outer loop
         vertex 7.482426e+00 6.483626e+00 0.000000e+00
         vertex 7.952907e+00 1.152177e+01 0.000000e+00
         vertex 1.047915e+01 9.283717e+00 0.000000e+00
      endloop
   endfacet
   facet normal 0.000000e+00 0.000000e+00 -1.000000e+00
      outer loop
         vertex 5.352849e+00 8.328915e+00 0.000000e+00
         vertex 4.964468e+00 1.309023e+01 0.000000e+00
         vertex 7.952907e+00 1.152177e+01 0.000000e+00
      endloop
   endfacet
   facet normal 0.000000e+00 0.000000e+00 -1.000000e+00
      outer loop
         vertex 2.789657e+00 9.499486e+00 0.000000e+00
         vertex 1.687513e+00 1.389792e+01 0.000000e+00
         vertex 4.964468e+00 1.309023e+01 0.000000e+00
      endloop
   endfacet
   facet normal 0.000000e+00 0.000000e+00 -1.000000e+00
      outer loop
         vertex 5.050634e-04 9.900505e+00 0.000000e+00
         vertex -1.687513e+00 1.389792e+01 0.000000e+00
         vertex 1.687513e+00 1.389792e+01 0.000000e+00
      endloop
   endfacet
   facet normal 0.000000e+00 0.000000e+00 -1.000000e+00
      outer loop
         vertex -2.788647e+00 9.499486e+00 0.000000e+00
         vertex -4.964468e+00 1.309023e+01 0.000000e+00
         vertex -1.687513e+00 1.389792e+01 0.000000e+00
      endloop
   endfacet
   facet normal 0.000000e+00 0.000000e+00 -1.000000e+00
      outer loop
         vertex -5.351839e+00 8.328915e+00 0.000000e+00
         vertex -7.952907e+00 1.152177e+01 0.000000e+00
         vertex -4.964468e+00 1.309023e+01 0.000000e+00
      endloop
   endfacet
   facet normal 0.000000e+00 0.000000e+00 -1.000000e+00
      outer loop
         vertex -7.481416e+00 6.483626e+00 0.000000e+00
         vertex -1.047915e+01 9.283717e+00 0.000000e+00
         vertex -7.952907e+00 1.152177e+01 0.000000e+00
      endloop
   endfacet
   facet normal 0.000000e+00 0.000000e+00 -1.000000e+00
      outer loop
         vertex -7.481416e+00 6.483626e+00 0.000000e+00
         vertex -1.239638e+01 6.506124e+00 0.000000e+00
         vertex -1.047915e+01 9.283717e+00 0.000000e+00
      endloop
   endfacet
   facet normal 0.000000e+00 0.000000e+00 -1.000000e+00
      outer loop
         vertex -9.004851e+00 4.113114e+00 0.000000e+00
         vertex -1.359319e+01 3.350419e+00 0.000000e+00
         vertex -1.239638e+01 6.506124e+00 0.000000e+00
      endloop
   endfacet
   facet normal 0.000000e+00 0.000000e+00 -1.000000e+00
      outer loop
         vertex -9.798727e+00 1.409422e+00 0.000000e+00
         vertex -1.400000e+01 1.714506e-15 0.000000e+00
         vertex -1.359319e+01 3.350419e+00 0.000000e+00
      endloop
   endfacet
   facet normal 0.000000e+00 0.000000e+00 -1.000000e+00
      outer loop
         vertex -1.687513e+00 -1.389792e+01 0.000000e+00
         vertex -2.788647e+00 -9.498475e+00 0.000000e+00
         vertex 5.050634e-04 -9.899495e+00 0.000000e+00
      endloop
   endfacet
   facet normal 0.000000e+00 0.000000e+00 -1.000000e+00
      outer loop
         vertex -4.964468e+00 -1.309023e+01 0.000000e+00
         vertex -5.351839e+00 -8.327905e+00 0.000000e+00
         vertex -2.788647e+00 -9.498475e+00 0.000000e+00
      endloop
   endfacet
   facet normal 0.000000e+00 -0.000000e+00 -1.000000e+00
      outer loop
         vertex -7.952907e+00 -1.152177e+01 0.000000e+00
         vertex -7.481416e+00 -6.482616e+00 0.000000e+00
         vertex -5.351839e+00 -8.327905e+00 0.000000e+00
      endloop
   endfacet
   facet normal 0.000000e+00 -0.000000e+00 -1.000000e+00
      outer loop
         vertex -1.239638e+01 -6.506124e+00 0.000000e+00
         vertex -9.004851e+00 -4.112103e+00 0.000000e+00
         vertex -7.481416e+00 -6.482616e+00 0.000000e+00
      endloop
   endfacet
   facet normal 0.000000e+00 -0.000000e+00 -1.000000e+00
      outer loop
         vertex -1.359319e+01 -3.350419e+00 0.000000e+00
         vertex -9.798727e+00 -1.408412e+00 0.000000e+00
         vertex -9.004851e+00 -4.112103e+00 0.000000e+00
      endloop
   endfacet
   facet normal 0.000000e+00 -0.000000e+00 -1.000000e+00
      outer loop
         vertex -1.400000e+01 1.714506e-15 0.000000e+00
         vertex -9.798727e+00 1.409422e+00 0.000000e+00
         vertex -9.798727e+00 -1.408412e+00 0.000000e+00
      endloop
   endfacet
   facet normal 0.000000e+00 0.000000e+00 -1.000000e+00
      outer loop
         vertex -1.359319e+01 3.350419e+00 0.000000e+00
         vertex -9.004851e+00 4.113114e+00 0.000000e+00
         vertex -9.798727e+00 1.409422e+00 0.000000e+00
      endloop
   endfacet
   facet normal -0.000000e+00 0.000000e+00 -1.000000e+00
      outer loop
         vertex -1.239638e+01 6.506124e+00 0.000000e+00
         vertex -7.481416e+00 6.483626e+00 0.000000e+00
         vertex -9.004851e+00 4.113114e+00 0.000000e+00
      endloop
   endfacet
   facet normal -0.000000e+00 0.000000e+00 -1.000000e+00
      outer loop
         vertex -7.952907e+00 1.152177e+01 0.000000e+00
         vertex -5.351839e+00 8.328915e+00 0.000000e+00
         vertex -7.481416e+00 6.483626e+00 0.000000e+00
      endloop
   endfacet
   facet normal -0.000000e+00 0.000000e+00 -1.000000e+00
      outer loop
         vertex -4.964468e+00 1.309023e+01 0.000000e+00
         vertex -2.788647e+00 9.499486e+00 0.000000e+00
         vertex -5.351839e+00 8.328915e+00 0.000000e+00
      endloop
   endfacet
   facet normal -0.000000e+00 0.000000e+00 -1.000000e+00
      outer loop
         vertex -1.687513e+00 1.389792e+01 0.000000e+00
         vertex 5.050634e-04 9.900505e+00 0.000000e+00
         vertex -2.788647e+00 9.499486e+00 0.000000e+00
      endloop
   endfacet
   facet normal 0.000000e+00 0.000000e+00 -1.000000e+00
      outer loop
         vertex 1.687513e+00 1.389792e+01 0.000000e+00
         vertex 2.789657e+00 9.499486e+00 0.000000e+00
         vertex 5.050634e-04 9.900505e+00 0.000000e+00
      endloop
   endfacet
   facet normal 0.000000e+00 0.000000e+00 -1.000000e+00
      outer loop
         vertex 4.964468e+00 1.309023e+01 0.000000e+00
         vertex 5.352849e+00 8.328915e+00 0.000000e+00
         vertex 2.789657e+00 9.499486e+00 0.000000e+00
      endloop
   endfacet
   facet normal 0.000000e+00 0.000000e+00 -1.000000e+00
      outer loop
         vertex 7.952907e+00 1.152177e+01 0.000000e+00
         vertex 7.482426e+00 6.483626e+00 0.000000e+00
         vertex 5.352849e+00 8.328915e+00 0.000000e+00
      endloop
   endfacet
   facet normal 0.000000e+00 0.000000e+00 -1.000000e+00
      outer loop
         vertex 1.239638e+01 6.506124e+00 0.000000e+00
         vertex 9.005862e+00 4.113114e+00 0.000000e+00
         vertex 7.482426e+00 6.483626e+00 0.000000e+00
      endloop
   endfacet
   facet normal 0.000000e+00 0.000000e+00 -1.000000e+00
      outer loop
         vertex 1.359319e+01 3.350419e+00 0.000000e+00
         vertex 9.799737e+00 1.409422e+00 0.000000e+00
         vertex 9.005862e+00 4.113114e+00 0.000000e+00
      endloop
   endfacet
   facet normal 0.000000e+00 0.000000e+00 -1.000000e+00
      outer loop
         vertex 1.400000e+01 -1.586351e-14 0.000000e+00
         vertex 9.799737e+00 -1.408412e+00 0.000000e+00
         vertex 9.799737e+00 1.409422e+00 0.000000e+00
      endloop
   endfacet
   facet normal 0.000000e+00 0.000000e+00 -1.000000e+00
      outer loop
         vertex 1.359319e+01 -3.350419e+00 0.000000e+00
         vertex 9.005862e+00 -4.112103e+00 0.000000e+00
         vertex 9.799737e+00 -1.408412e+00 0.000000e+00
      endloop
   endfacet
   facet normal 0.000000e+00 0.000000e+00 -1.000000e+00
      outer loop
         vertex 1.239638e+01 -6.506124e+00 0.000000e+00
         vertex 7.482426e+00 -6.482616e+00 0.000000e+00
         vertex 9.005862e+00 -4.112103e+00 0.000000e+00
      endloop
   endfacet
   facet normal 0.000000e+00 0.000000e+00 -1.000000e+00
      outer loop
         vertex 7.952907e+00 -1.152177e+01 0.000000e+00
         vertex 5.352849e+00 -8.327905e+00 0.000000e+00
         vertex 7.482426e+00 -6.482616e+00 0.000000e+00
      endloop
   endfacet
   facet normal 0.000000e+00 0.000000e+00 -1.000000e+00
      outer loop
         vertex 4.964468e+00 -1.309023e+01 0.000000e+00
         vertex 2.789657e+00 -9.498475e+00 0.000000e+00
         vertex 5.352849e+00 -8.327905e+00 0.000000e+00
      endloop
   endfacet
   facet normal 0.000000e+00 0.000000e+00 -1.000000e+00
      outer loop
         vertex 1.687513e+00 -1.389792e+01 0.000000e+00
         vertex 5.050634e-04 -9.899495e+00 0.000000e+00
         vertex 2.789657e+00 -9.498475e+00 0.000000e+00
      endloop
   endfacet
   facet normal 1.423150e-01 9.898214e-01 0.000000e+00
      outer loop
         vertex -2.788647e+00 -9.498475e+00 0.000000e+00
         vertex -2.788647e+00 -9.498475e+00 5.000000e+00
         vertex 5.050634e-04 -9.899495e+00 5.000000e+00
      endloop
   endfacet
   facet normal 1.423150e-01 9.898214e-01 0.000000e+00
      outer loop
         vertex 5.050634e-04 -9.899495e+00 0.000000e+00
         vertex -2.788647e+00 -9.498475e+00 0.000000e+00
         vertex 5.050634e-04 -9.899495e+00 5.000000e+00
      endloop
   endfacet
   facet normal 4.154150e-01 9.096320e-01 0.000000e+00
      outer loop
         vertex -5.351839e+00 -8.327905e+00 0.000000e+00
         vertex -5.351839e+00 -8.327905e+00 5.000000e+00
         vertex -2.788647e+00 -9.498475e+00 5.000000e+00
      endloop
   endfacet
   facet normal 4.154150e-01 9.096320e-01 0.000000e+00
      outer loop
         vertex -2.788647e+00 -9.498475e+00 0.000000e+00
         vertex -5.351839e+00 -8.327905e+00 0.000000e+00
         vertex -2.788647e+00 -9.498475e+00 5.000000e+00
      endloop
   endfacet
   facet normal 6.548606e-01 7.557496e-01 0.000000e+00
      outer loop
         vertex -7.481416e+00 -6.482616e+00 0.000000e+00
         vertex -7.481416e+00 -6.482616e+00 5.000000e+00
         vertex -5.351839e+00 -8.327905e+00 5.000000e+00
      endloop
   endfacet
   facet normal 6.548606e-01 7.557496e-01 0.000000e+00
      outer loop
         vertex -5.351839e+00 -8.327905e+00 0.000000e+00
         vertex -7.481416e+00 -6.482616e+00 0.000000e+00
         vertex -5.351839e+00 -8.327905e+00 5.000000e+00
      endloop
   endfacet
   facet normal 8.412536e-01 5.406407e-01 0.000000e+00
      outer loop
         vertex -9.004851e+00 -4.112103e+00 0.000000e+00
         vertex -9.004851e+00 -4.112103e+00 5.000000e+00
         vertex -7.481416e+00 -6.482616e+00 5.000000e+00
      endloop
   endfacet
   facet normal 8.412536e-01 5.406407e-01 0.000000e+00
      outer loop
         vertex -7.481416e+00 -6.482616e+00 0.000000e+00
         vertex -9.004851e+00 -4.112103e+00 0.000000e+00
         vertex -7.481416e+00 -6.482616e+00 5.000000e+00
      endloop
   endfacet
   facet normal 9.594930e-01 2.817326e-01 0.000000e+00
      outer loop
         vertex -9.798727e+00 -1.408412e+00 0.000000e+00
         vertex -9.798727e+00 -1.408412e+00 5.000000e+00
         vertex -9.004851e+00 -4.112103e+00 5.000000e+00
      endloop
   endfacet
   facet normal 9.594930e-01 2.817326e-01 0.000000e+00
      outer loop
         vertex -9.004851e+00 -4.112103e+00 0.000000e+00
         vertex -9.798727e+00 -1.408412e+00 0.000000e+00
         vertex -9.004851e+00 -4.112103e+00 5.000000e+00
      endloop
   endfacet
   facet normal 1.000000e+00 0.000000e+00 0.000000e+00
      outer loop
         vertex -9.798727e+00 1.409422e+00 0.000000e+00
         vertex -9.798727e+00 1.409422e+00 5.000000e+00
         vertex -9.798727e+00 -1.408412e+00 5.000000e+00
      endloop
   endfacet
   facet normal 1.000000e+00 0.000000e+00 0.000000e+00
      outer loop
         vertex -9.798727e+00 -1.408412e+00 0.000000e+00
         vertex -9.798727e+00 1.409422e+00 0.000000e+00
         vertex -9.798727e+00 -1.408412e+00 5.000000e+00
      endloop
   endfacet
   facet normal 9.594930e-01 -2.817326e-01 0.000000e+00
      outer loop
         vertex -9.004851e+00 4.113114e+00 0.000000e+00
         vertex -9.004851e+00 4.113114e+00 5.000000e+00
         vertex -9.798727e+00 1.409422e+00 5.000000e+00
      endloop
   endfacet
   facet normal 9.594930e-01 -2.817326e-01 0.000000e+00
      outer loop
         vertex -9.798727e+00 1.409422e+00 0.000000e+00
         vertex -9.004851e+00 4.113114e+00 0.000000e+00
         vertex -9.798727e+00 1.409422e+00 5.000000e+00
      endloop
   endfacet
   facet normal 8.412536e-01 -5.406407e-01 0.000000e+00
      outer loop
         vertex -7.481416e+00 6.483626e+00 0.000000e+00
         vertex -7.481416e+00 6.483626e+00 5.000000e+00
         vertex -9.004851e+00 4.113114e+00 5.000000e+00
      endloop
   endfacet
   facet normal 8.412536e-01 -5.406407e-01 0.000000e+00
      outer loop
         vertex -9.004851e+00 4.113114e+00 0.000000e+00
         vertex -7.481416e+00 6.483626e+00 0.000000e+00
         vertex -9.004851e+00 4.113114e+00 5.000000e+00
      endloop
   endfacet
   facet normal 6.548606e-01 -7.557496e-01 0.000000e+00
      outer loop
         vertex -5.351839e+00 8.328915e+00 0.000000e+00
         vertex -5.351839e+00 8.328915e+00 5.000000e+00
         vertex -7.481416e+00 6.483626e+00 5.000000e+00
      endloop
   endfacet
   facet normal 6.548606e-01 -7.557496e-01 0.000000e+00
      outer loop
         vertex -7.481416e+00 6.483626e+00 0.000000e+00
         vertex -5.351839e+00 8.328915e+00 0.000000e+00
         vertex -7.481416e+00 6.483626e+00 5.000000e+00
      endloop
   endfacet
   facet normal 4.154153e-01 -9.096319e-01 0.000000e+00
      outer loop
         vertex -2.788647e+00 9.499486e+00 0.000000e+00
         vertex -2.788647e+00 9.499486e+00 5.000000e+00
         vertex -5.351839e+00 8.328915e+00 5.000000e+00
      endloop
   endfacet
   facet normal 4.154153e-01 -9.096319e-01 0.000000e+00
      outer loop
         vertex -5.351839e+00 8.328915e+00 0.000000e+00
         vertex -2.788647e+00 9.499486e+00 0.000000e+00
         vertex -5.351839e+00 8.328915e+00 5.000000e+00
      endloop
   endfacet
   facet normal 1.423147e-01 -9.898215e-01 0.000000e+00
      outer loop
         vertex 5.050634e-04 9.900505e+00 0.000000e+00
         vertex 5.050634e-04 9.900505e+00 5.000000e+00
         vertex -2.788647e+00 9.499486e+00 5.000000e+00
      endloop
   endfacet
   facet normal 1.423147e-01 -9.898215e-01 0.000000e+00
      outer loop
         vertex -2.788647e+00 9.499486e+00 0.000000e+00
         vertex 5.050634e-04 9.900505e+00 0.000000e+00
         vertex -2.788647e+00 9.499486e+00 5.000000e+00
      endloop
   endfacet
   facet normal -1.423147e-01 -9.898215e-01 -0.000000e+00
      outer loop
         vertex 2.789657e+00 9.499486e+00 0.000000e+00
         vertex 2.789657e+00 9.499486e+00 5.000000e+00
         vertex 5.050634e-04 9.900505e+00 5.000000e+00
      endloop
   endfacet
   facet normal -1.423147e-01 -9.898215e-01 0.000000e+00
      outer loop
         vertex 5.050634e-04 9.900505e+00 0.000000e+00
         vertex 2.789657e+00 9.499486e+00 0.000000e+00
         vertex 5.050634e-04 9.900505e+00 5.000000e+00
      endloop
   endfacet
   facet normal -4.154153e-01 -9.096319e-01 -0.000000e+00
      outer loop
         vertex 5.352849e+00 8.328915e+00 0.000000e+00
         vertex 5.352849e+00 8.328915e+00 5.000000e+00
         vertex 2.789657e+00 9.499486e+00 5.000000e+00
      endloop
   endfacet
   facet normal -4.154153e-01 -9.096319e-01 0.000000e+00
      outer loop
         vertex 2.789657e+00 9.499486e+00 0.000000e+00
         vertex 5.352849e+00 8.328915e+00 0.000000e+00
         vertex 2.789657e+00 9.499486e+00 5.000000e+00
      endloop
   endfacet
   facet normal -6.548606e-01 -7.557496e-01 -0.000000e+00
      outer loop
         vertex 7.482426e+00 6.483626e+00 0.000000e+00
         vertex 7.482426e+00 6.483626e+00 5.000000e+00
         vertex 5.352849e+00 8.328915e+00 5.000000e+00
      endloop
   endfacet
   facet normal -6.548606e-01 -7.557496e-01 0.000000e+00
      outer loop
         vertex 5.352849e+00 8.328915e+00 0.000000e+00
         vertex 7.482426e+00 6.483626e+00 0.000000e+00
         vertex 5.352849e+00 8.328915e+00 5.000000e+00
      endloop
   endfacet
   facet normal -8.412534e-01 -5.406410e-01 -0.000000e+00
      outer loop
         vertex 9.005862e+00 4.113114e+00 0.000000e+00
         vertex 9.005862e+00 4.113114e+00 5.000000e+00
         vertex 7.482426e+00 6.483626e+00 5.000000e+00
      endloop
   endfacet
   facet normal -8.412534e-01 -5.406410e-01 0.000000e+00
      outer loop
         vertex 7.482426e+00 6.483626e+00 0.000000e+00
         vertex 9.005862e+00 4.113114e+00 0.000000e+00
         vertex 7.482426e+00 6.483626e+00 5.000000e+00
      endloop
   endfacet
   facet normal -9.594931e-01 -2.817323e-01 -0.000000e+00
      outer loop
         vertex 9.799737e+00 1.409422e+00 0.000000e+00
         vertex 9.799737e+00 1.409422e+00 5.000000e+00
         vertex 9.005862e+00 4.113114e+00 5.000000e+00
      endloop
   endfacet
   facet normal -9.594931e-01 -2.817323e-01 0.000000e+00
      outer loop
         vertex 9.005862e+00 4.113114e+00 0.000000e+00
         vertex 9.799737e+00 1.409422e+00 0.000000e+00
         vertex 9.005862e+00 4.113114e+00 5.000000e+00
      endloop
   endfacet
   facet normal -1.000000e+00 0.000000e+00 0.000000e+00
      outer loop
         vertex 9.799737e+00 -1.408412e+00 0.000000e+00
         vertex 9.799737e+00 -1.408412e+00 5.000000e+00
         vertex 9.799737e+00 1.409422e+00 5.000000e+00
      endloop
   endfacet
   facet normal -1.000000e+00 0.000000e+00 0.000000e+00
      outer loop
         vertex 9.799737e+00 1.409422e+00 0.000000e+00
         vertex 9.799737e+00 -1.408412e+00 0.000000e+00
         vertex 9.799737e+00 1.409422e+00 5.000000e+00
      endloop
   endfacet
   facet normal -9.594930e-01 2.817323e-01 0.000000e+00
      outer loop
         vertex 9.005862e+00 -4.112103e+00 0.000000e+00
         vertex 9.005862e+00 -4.112103e+00 5.000000e+00
         vertex 9.799737e+00 -1.408412e+00 5.000000e+00
      endloop
   endfacet
   facet normal -9.594930e-01 2.817323e-01 0.000000e+00
      outer loop
         vertex 9.799737e+00 -1.408412e+00 0.000000e+00
         vertex 9.005862e+00 -4.112103e+00 0.000000e+00
         vertex 9.799737e+00 -1.408412e+00 5.000000e+00
      endloop
   endfacet
   facet normal -8.412535e-01 5.406409e-01 0.000000e+00
      outer loop
         vertex 7.482426e+00 -6.482616e+00 0.000000e+00
         vertex 7.482426e+00 -6.482616e+00 5.000000e+00
         vertex 9.005862e+00 -4.112103e+00 5.000000e+00
      endloop
   endfacet
   facet normal -8.412535e-01 5.406409e-01 0.000000e+00
      outer loop
         vertex 9.005862e+00 -4.112103e+00 0.000000e+00
         vertex 7.482426e+00 -6.482616e+00 0.000000e+00
         vertex 9.005862e+00 -4.112103e+00 5.000000e+00
      endloop
   endfacet
   facet normal -6.548606e-01 7.557496e-01 0.000000e+00
      outer loop
         vertex 5.352849e+00 -8.327905e+00 0.000000e+00
         vertex 5.352849e+00 -8.327905e+00 5.000000e+00
         vertex 7.482426e+00 -6.482616e+00 5.000000e+00
      endloop
   endfacet
   facet normal -6.548606e-01 7.557496e-01 0.000000e+00
      outer loop
         vertex 7.482426e+00 -6.482616e+00 0.000000e+00
         vertex 5.352849e+00 -8.327905e+00 0.000000e+00
         vertex 7.482426e+00 -6.482616e+00 5.000000e+00
      endloop
   endfacet
   facet normal -4.154150e-01 9.096320e-01 0.000000e+00
      outer loop
         vertex 2.789657e+00 -9.498475e+00 0.000000e+00
         vertex 2.789657e+00 -9.498475e+00 5.000000e+00
         vertex 5.352849e+00 -8.327905e+00 5.000000e+00
      endloop
   endfacet
   facet normal -4.154150e-01 9.096320e-01 0.000000e+00
      outer loop
         vertex 5.352849e+00 -8.327905e+00 0.000000e+00
         vertex 2.789657e+00 -9.498475e+00 0.000000e+00
         vertex 5.352849e+00 -8.327905e+00 5.000000e+00
      endloop
   endfacet
   facet normal -1.423150e-01 9.898214e-01 0.000000e+00
      outer loop
         vertex 5.050634e-04 -9.899495e+00 0.000000e+00
         vertex 5.050634e-04 -9.899495e+00 5.000000e+00
         vertex 2.789657e+00 -9.498475e+00 5.000000e+00
      endloop
   endfacet
   facet normal -1.423150e-01 9.898214e-01 0.000000e+00
      outer loop
         vertex 2.789657e+00 -9.498475e+00 0.000000e+00
         vertex 5.050634e-04 -9.899495e+00 0.000000e+00
         vertex 2.789657e+00 -9.498475e+00 5.000000e+00
      endloop
   endfacet
   facet normal 0.000000e+00 0.000000e+00 -1.000000e+00
      outer loop
         vertex 2.789657e+00 -9.498475e+00 5.000000e+00
         vertex 5.050634e-04 -9.899495e+00 5.000000e+00
         vertex -2.788647e+00 -9.498475e+00 5.000000e+00
      endloop
   endfacet
   facet normal 0.000000e+00 0.000000e+00 -1.000000e+00
      outer loop
         vertex -2.788647e+00 -9.498475e+00 5.000000e+00
         vertex -5.351839e+00 -8.327905e+00 5.000000e+00
         vertex -7.481416e+00 -6.482616e+00 5.000000e+00
      endloop
   endfacet
   facet normal 0.000000e+00 0.000000e+00 -1.000000e+00
      outer loop
         vertex -7.481416e+00 -6.482616e+00 5.000000e+00
         vertex -9.004851e+00 -4.112103e+00 5.000000e+00
         vertex 2.789657e+00 -9.498475e+00 5.000000e+00
      endloop
   endfacet
   facet normal 0.000000e+00 0.000000e+00 -1.000000e+00
      outer loop
         vertex -9.004851e+00 -4.112103e+00 5.000000e+00
         vertex -9.798727e+00 -1.408412e+00 5.000000e+00
         vertex 2.789657e+00 -9.498475e+00 5.000000e+00
      endloop
   endfacet
   facet normal 0.000000e+00 0.000000e+00 -1.000000e+00
      outer loop
         vertex -9.798727e+00 -1.408412e+00 5.000000e+00
         vertex -9.798727e+00 1.409422e+00 5.000000e+00
         vertex 2.789657e+00 -9.498475e+00 5.000000e+00
      endloop
   endfacet
   facet normal 0.000000e+00 -0.000000e+00 -1.000000e+00
      outer loop
         vertex -9.798727e+00 1.409422e+00 5.000000e+00
         vertex -9.004851e+00 4.113114e+00 5.000000e+00
         vertex -7.481416e+00 6.483626e+00 5.000000e+00
      endloop
   endfacet
   facet normal 0.000000e+00 -0.000000e+00 -1.000000e+00
      outer loop
         vertex -7.481416e+00 6.483626e+00 5.000000e+00
         vertex -5.351839e+00 8.328915e+00 5.000000e+00
         vertex -2.788647e+00 9.499486e+00 5.000000e+00
      endloop
   endfacet
   facet normal 0.000000e+00 -0.000000e+00 -1.000000e+00
      outer loop
         vertex -2.788647e+00 9.499486e+00 5.000000e+00
         vertex 5.050634e-04 9.900505e+00 5.000000e+00
         vertex 2.789657e+00 -9.498475e+00 5.000000e+00
      endloop
   endfacet
   facet normal -0.000000e+00 -0.000000e+00 -1.000000e+00
      outer loop
         vertex 5.050634e-04 9.900505e+00 5.000000e+00
         vertex 2.789657e+00 9.499486e+00 5.000000e+00
         vertex 2.789657e+00 -9.498475e+00 5.000000e+00
      endloop
   endfacet
   facet normal -0.000000e+00 0.000000e+00 -1.000000e+00
      outer loop
         vertex 2.789657e+00 9.499486e+00 5.000000e+00
         vertex 5.352849e+00 8.328915e+00 5.000000e+00
         vertex 2.789657e+00 -9.498475e+00 5.000000e+00
      endloop
   endfacet
   facet normal -0.000000e+00 -0.000000e+00 -1.000000e+00
      outer loop
         vertex 5.352849e+00 8.328915e+00 5.000000e+00
         vertex 7.482426e+00 6.483626e+00 5.000000e+00
         vertex 9.005862e+00 4.113114e+00 5.000000e+00
      endloop
   endfacet
   facet normal -0.000000e+00 0.000000e+00 -1.000000e+00
      outer loop
         vertex 9.005862e+00 4.113114e+00 5.000000e+00
         vertex 9.799737e+00 1.409422e+00 5.000000e+00
         vertex 2.789657e+00 -9.498475e+00 5.000000e+00
      endloop
   endfacet
   facet normal -0.000000e+00 0.000000e+00 -1.000000e+00
      outer loop
         vertex 9.799737e+00 1.409422e+00 5.000000e+00
         vertex 9.799737e+00 -1.408412e+00 5.000000e+00
         vertex 2.789657e+00 -9.498475e+00 5.000000e+00
      endloop
   endfacet
   facet normal -0.000000e+00 0.000000e+00 -1.000000e+00
      outer loop
         vertex 9.799737e+00 -1.408412e+00 5.000000e+00
         vertex 9.005862e+00 -4.112103e+00 5.000000e+00
         vertex 2.789657e+00 -9.498475e+00 5.000000e+00
      endloop
   endfacet
   facet normal -0.000000e+00 0.000000e+00 -1.000000e+00
      outer loop
         vertex 9.005862e+00 -4.112103e+00 5.000000e+00
         vertex 7.482426e+00 -6.482616e+00 5.000000e+00
         vertex 2.789657e+00 -9.498475e+00 5.000000e+00
      endloop
   endfacet
   facet normal -0.000000e+00 0.000000e+00 -1.000000e+00
      outer loop
         vertex 7.482426e+00 -6.482616e+00 5.000000e+00
         vertex 5.352849e+00 -8.327905e+00 5.000000e+00
         vertex 2.789657e+00 -9.498475e+00 5.000000e+00
      endloop
   endfacet
   facet normal 0.000000e+00 0.000000e+00 -1.000000e+00
      outer loop
         vertex 2.789657e+00 -9.498475e+00 5.000000e+00
         vertex -2.788647e+00 -9.498475e+00 5.000000e+00
         vertex -7.481416e+00 -6.482616e+00 5.000000e+00
      endloop
   endfacet
   facet normal 0.000000e+00 0.000000e+00 -1.000000e+00
      outer loop
         vertex 2.789657e+00 -9.498475e+00 5.000000e+00
         vertex -9.798727e+00 1.409422e+00 5.000000e+00
         vertex -7.481416e+00 6.483626e+00 5.000000e+00
      endloop
   endfacet
   facet normal 0.000000e+00 -0.000000e+00 -1.000000e+00
      outer loop
         vertex -7.481416e+00 6.483626e+00 5.000000e+00
         vertex -2.788647e+00 9.499486e+00 5.000000e+00
         vertex 2.789657e+00 -9.498475e+00 5.000000e+00
      endloop
   endfacet
   facet normal 0.000000e+00 -0.000000e+00 -1.000000e+00
      outer loop
         vertex 2.789657e+00 -9.498475e+00 5.000000e+00
         vertex 5.352849e+00 8.328915e+00 5.000000e+00
         vertex 9.005862e+00 4.113114e+00 5.000000e+00
      endloop
   endfacet
endsolid
